<?xml version="1.0" encoding="UTF-8" standalone="no"?>
<!-- Created with Inkscape (http://www.inkscape.org/) -->

<svg
   xmlns:dc="http://purl.org/dc/elements/1.1/"
   xmlns:cc="http://creativecommons.org/ns#"
   xmlns:rdf="http://www.w3.org/1999/02/22-rdf-syntax-ns#"
   xmlns:svg="http://www.w3.org/2000/svg"
   xmlns="http://www.w3.org/2000/svg"
   xmlns:sodipodi="http://sodipodi.sourceforge.net/DTD/sodipodi-0.dtd"
   xmlns:inkscape="http://www.inkscape.org/namespaces/inkscape"
   id="svg3336"
   version="1.1"
   inkscape:version="0.91 r13725"
   width="160"
   height="160"
   viewBox="0 0 160 160"
   sodipodi:docname="favicon-quanda.svg"
   inkscape:export-filename="D:\Aliaksandr\Stage\Entitypedia\git-svn\apps\quanda\docs\mockups\logo\favicon-quanda.png"
   inkscape:export-xdpi="90"
   inkscape:export-ydpi="90">
  <metadata
     id="metadata3342">
    <rdf:RDF>
      <cc:Work
         rdf:about="">
        <dc:format>image/svg+xml</dc:format>
        <dc:type
           rdf:resource="http://purl.org/dc/dcmitype/StillImage" />
        <dc:title></dc:title>
      </cc:Work>
    </rdf:RDF>
  </metadata>
  <defs
     id="defs3340" />
  <sodipodi:namedview
     pagecolor="#ffffff"
     bordercolor="#666666"
     borderopacity="1"
     objecttolerance="10"
     gridtolerance="10"
     guidetolerance="10"
     inkscape:pageopacity="0"
     inkscape:pageshadow="2"
     inkscape:window-width="1600"
     inkscape:window-height="841"
     id="namedview3338"
     showgrid="false"
     inkscape:zoom="4.2"
     inkscape:cx="79.52381"
     inkscape:cy="80"
     inkscape:window-x="-8"
     inkscape:window-y="-8"
     inkscape:window-maximized="1"
     inkscape:current-layer="svg3336"
     fit-margin-top="0"
     fit-margin-left="0"
     fit-margin-right="0"
     fit-margin-bottom="0" />
  <g
     id="g5280"
     transform="matrix(1.6405618,0,0,1.6405618,-2.0280879,-100.4618)">
    <path
       id="path3445"
       d="m 44.303997,152.63355 c -7.25326,-3.35664 -14.18599,-10.27368 -17.61469,-17.57481 -1.39605,-2.97276 -4.41238,-7.4224 -6.70297,-9.88809 -26.1646795,-28.164788 5.51858,-70.862907 43.01078,-57.9637 43.936493,15.116373 30.02788,73.92395 -16.59862,70.18122 -3.3389,-0.26801 -6.07071,-0.31091 -6.07071,-0.0953 0,1.36658 5.49238,10.83336 8.21397,14.15775 3.83248,4.68135 3.51393,4.77029 -4.23776,1.18296 z"
       style="fill:#009de0;fill-opacity:1"
       inkscape:connector-curvature="0" />
    <path
       id="path3443"
       d="m 52.939917,125.28448 c 2.82669,-1.28793 3.465421,-6.73541 0.90493,-7.71796 -4.81586,-1.84802 -8.82957,0.0241 -8.82957,4.11845 0,4.38515 3.10499,5.79549 7.92464,3.59951 z"
       style="fill:#ffffff;fill-opacity:1"
       inkscape:connector-curvature="0" />
    <path
       id="path3441"
       d="m 53.621947,111.1728 c 0.21988,-1.52273 1.16749,-2.25117 3.562,-2.73817 10.44991,-2.12532 14.29053,-18.523287 5.51765,-23.558228 -13.81953,-7.931314 -32.7557,2.879716 -23.25796,13.278414 4.70659,5.153054 16.36625,1.966544 12.93111,-3.533997 -1.63498,-2.618008 -5.48447,-2.704589 -5.48447,-0.123353 0,1.960584 -0.72678,2.256767 -3.20457,1.305948 -2.79744,-1.07348 -1.532159,-3.973362 3.36739,-7.717656 2.7421,-2.095547 8.9749,0.22551 10.78207,4.015176 2.15065,4.509955 1.06534,7.725389 -3.23513,9.584636 -6.98339,3.01917 -7.87073,3.54844 -8.771789,5.23207 -1.28776,2.40622 -0.166,5.2 2.27823,5.67401 4.39998,0.85329 5.21775,0.64292 5.51547,-1.41885 z"
       style="fill:#ffffff;fill-opacity:1"
       inkscape:connector-curvature="0" />
  </g>
</svg>
