<?xml version="1.0" encoding="UTF-8" standalone="no"?>
<svg
   xmlns:dc="http://purl.org/dc/elements/1.1/"
   xmlns:cc="http://creativecommons.org/ns#"
   xmlns:rdf="http://www.w3.org/1999/02/22-rdf-syntax-ns#"
   xmlns:svg="http://www.w3.org/2000/svg"
   xmlns="http://www.w3.org/2000/svg"
   xml:space="preserve"
   enable-background="new 0 0 841.89 595.276"
   viewBox="0 0 520 130"
   height="130"
   width="520"
   y="0px"
   x="0px"
   id="Livello_1"
   version="1.1"><metadata
     id="metadata93"><rdf:RDF><cc:Work
         rdf:about=""><dc:format>image/svg+xml</dc:format><dc:type
           rdf:resource="http://purl.org/dc/dcmitype/StillImage" /><dc:title></dc:title></cc:Work></rdf:RDF></metadata><defs
     id="defs91" /><g
     transform="translate(-174.3655,-239.421)"
     id="g21" /><g
     id="g4226"><path
       style="fill:#868686"
       id="path25"
       d="m 184.5865,98.585 -11.306,0 0,10.485 12.601,0 0,3.15 -16.354,0 0,-29.084 15.707,0 0,3.149 -11.953,0 0,9.191 11.306,0 0,3.109 z" /><path
       style="fill:#868686"
       id="path27"
       d="m 190.6285,96.989 c 0,-2.158 -0.043,-3.927 -0.172,-5.653 l 3.366,0 0.216,3.452 0.086,0 c 1.036,-1.984 3.452,-3.927 6.904,-3.927 2.891,0 7.379,1.727 7.379,8.89 l 0,12.471 -3.797,0 0,-12.039 c 0,-3.366 -1.251,-6.171 -4.833,-6.171 -2.503,0 -4.445,1.77 -5.092,3.884 -0.173,0.475 -0.259,1.122 -0.259,1.769 l 0,12.558 -3.797,0 0,-15.234 z" /><path
       style="fill:#868686"
       id="path29"
       d="m 218.9805,85.337 0,5.998 5.437,0 0,2.892 -5.437,0 0,11.263 c 0,2.589 0.733,4.056 2.848,4.056 0.993,0 1.726,-0.129 2.201,-0.259 l 0.173,2.849 c -0.734,0.302 -1.899,0.518 -3.366,0.518 -1.769,0 -3.193,-0.562 -4.099,-1.597 -1.079,-1.122 -1.467,-2.978 -1.467,-5.438 l 0,-11.392 -3.236,0 0,-2.892 3.236,0 0,-5.006 3.71,-0.992 z" /><path
       style="fill:#868686"
       id="path31"
       d="m 232.9185,85.467 c 0.043,1.294 -0.906,2.33 -2.417,2.33 -1.337,0 -2.287,-1.036 -2.287,-2.33 0,-1.338 0.993,-2.374 2.374,-2.374 1.424,0 2.33,1.036 2.33,2.374 z m -4.229,26.754 0,-20.886 3.797,0 0,20.886 -3.797,0 z" /><path
       style="fill:#868686"
       id="path33"
       d="m 243.3615,85.337 0,5.998 5.437,0 0,2.892 -5.437,0 0,11.263 c 0,2.589 0.734,4.056 2.848,4.056 0.992,0 1.726,-0.129 2.201,-0.259 l 0.172,2.849 c -0.733,0.302 -1.898,0.518 -3.366,0.518 -1.769,0 -3.193,-0.562 -4.099,-1.597 -1.079,-1.122 -1.467,-2.978 -1.467,-5.438 l 0,-11.392 -3.236,0 0,-2.892 3.236,0 0,-5.006 3.711,-0.992 z" /><path
       style="fill:#868686"
       id="path35"
       d="m 254.7975,91.335 4.574,12.342 c 0.475,1.381 0.993,3.021 1.338,4.271 l 0.086,0 c 0.389,-1.251 0.82,-2.848 1.338,-4.357 l 4.143,-12.256 4.013,0 -5.696,14.888 c -2.719,7.163 -4.574,10.831 -7.164,13.075 -1.855,1.64 -3.711,2.287 -4.66,2.459 l -0.95,-3.192 c 0.95,-0.303 2.201,-0.906 3.323,-1.856 1.036,-0.819 2.331,-2.286 3.193,-4.229 0.173,-0.389 0.302,-0.69 0.302,-0.906 0,-0.216 -0.086,-0.518 -0.259,-0.992 l -7.725,-19.246 4.144,0 z" /><path
       style="fill:#868686"
       id="path37"
       d="m 273.7415,98.154 c 0,-2.676 -0.086,-4.833 -0.172,-6.818 l 3.409,0 0.173,3.582 0.086,0 c 1.553,-2.546 4.013,-4.057 7.422,-4.057 5.049,0 8.846,4.272 8.846,10.615 0,7.509 -4.574,11.22 -9.493,11.22 -2.762,0 -5.178,-1.208 -6.43,-3.279 l -0.086,0 0,11.349 -3.754,0 0,-22.612 z m 3.755,5.566 c 0,0.561 0.086,1.079 0.172,1.554 0.69,2.632 2.978,4.444 5.696,4.444 4.013,0 6.344,-3.279 6.344,-8.069 0,-4.186 -2.201,-7.768 -6.214,-7.768 -2.59,0 -5.006,1.855 -5.74,4.704 -0.129,0.475 -0.259,1.035 -0.259,1.553 l 0,3.582 z" /><path
       style="fill:#868686"
       id="path39"
       d="m 300.4105,102.469 c 0.086,5.135 3.366,7.249 7.163,7.249 2.719,0 4.358,-0.475 5.782,-1.079 l 0.647,2.719 c -1.338,0.604 -3.625,1.295 -6.947,1.295 -6.43,0 -10.271,-4.229 -10.271,-10.529 0,-6.3 3.711,-11.263 9.796,-11.263 6.817,0 8.63,5.998 8.63,9.839 0,0.776 -0.086,1.381 -0.129,1.77 l -14.671,0 z m 11.133,-2.719 c 0.043,-2.417 -0.992,-6.171 -5.265,-6.171 -3.84,0 -5.523,3.538 -5.825,6.171 l 11.09,0 z" /><path
       style="fill:#868686"
       id="path41"
       d="m 337.9535,81.583 0,25.244 c 0,1.855 0.043,3.97 0.173,5.394 l -3.409,0 -0.173,-3.625 -0.086,0 c -1.165,2.33 -3.711,4.1 -7.12,4.1 -5.049,0 -8.933,-4.272 -8.933,-10.615 -0.043,-6.947 4.272,-11.22 9.364,-11.22 3.193,0 5.351,1.511 6.3,3.193 l 0.087,0 0,-12.471 3.797,0 z m -3.797,18.253 c 0,-0.475 -0.044,-1.122 -0.173,-1.597 -0.562,-2.416 -2.633,-4.401 -5.48,-4.401 -3.927,0 -6.257,3.452 -6.257,8.069 0,4.229 2.071,7.725 6.171,7.725 2.546,0 4.876,-1.684 5.566,-4.531 0.129,-0.518 0.173,-1.035 0.173,-1.64 l 0,-3.625 z" /><path
       style="fill:#868686"
       id="path43"
       d="m 348.4845,85.467 c 0.043,1.294 -0.906,2.33 -2.416,2.33 -1.338,0 -2.287,-1.036 -2.287,-2.33 0,-1.338 0.992,-2.374 2.373,-2.374 1.423,0 2.33,1.036 2.33,2.374 z m -4.229,26.754 0,-20.886 3.797,0 0,20.886 -3.797,0 z" /><path
       style="fill:#868686"
       id="path45"
       d="m 365.9175,112.221 -0.302,-2.632 -0.13,0 c -1.165,1.64 -3.409,3.106 -6.387,3.106 -4.229,0 -6.386,-2.978 -6.386,-5.998 0,-5.049 4.487,-7.811 12.557,-7.768 l 0,-0.432 c 0,-1.726 -0.475,-4.833 -4.747,-4.833 -1.941,0 -3.97,0.604 -5.437,1.554 l -0.863,-2.503 c 1.727,-1.122 4.229,-1.855 6.861,-1.855 6.387,0 7.939,4.358 7.939,8.544 l 0,7.811 c 0,1.813 0.087,3.582 0.346,5.006 l -3.451,0 z m -0.56,-10.658 c -4.143,-0.087 -8.847,0.647 -8.847,4.703 0,2.46 1.64,3.625 3.582,3.625 2.718,0 4.444,-1.727 5.049,-3.495 0.129,-0.389 0.216,-0.82 0.216,-1.209 l 0,-3.624 z" /><path
       style="fill:#868686"
       id="path47"
       d="m 406.5675,110.926 c -1.683,0.604 -5.005,1.597 -8.932,1.597 -4.401,0 -8.026,-1.122 -10.875,-3.84 -2.503,-2.417 -4.056,-6.301 -4.056,-10.831 0.043,-8.674 5.998,-15.018 15.75,-15.018 3.366,0 5.998,0.733 7.25,1.338 l -0.906,3.063 c -1.554,-0.69 -3.495,-1.251 -6.43,-1.251 -7.077,0 -11.694,4.401 -11.694,11.694 0,7.379 4.444,11.737 11.22,11.737 2.459,0 4.143,-0.346 5.006,-0.777 l 0,-8.673 -5.912,0 0,-3.021 9.579,0 0,13.982 z" /><path
       style="fill:#868686"
       id="path49"
       d="m 424.0875,112.221 -0.302,-2.632 -0.13,0 c -1.165,1.64 -3.409,3.106 -6.387,3.106 -4.229,0 -6.386,-2.978 -6.386,-5.998 0,-5.049 4.487,-7.811 12.557,-7.768 l 0,-0.432 c 0,-1.726 -0.475,-4.833 -4.747,-4.833 -1.941,0 -3.97,0.604 -5.437,1.554 l -0.863,-2.503 c 1.727,-1.122 4.229,-1.855 6.861,-1.855 6.387,0 7.939,4.358 7.939,8.544 l 0,7.811 c 0,1.813 0.087,3.582 0.346,5.006 l -3.451,0 z m -0.56,-10.658 c -4.143,-0.087 -8.847,0.647 -8.847,4.703 0,2.46 1.64,3.625 3.582,3.625 2.718,0 4.444,-1.727 5.049,-3.495 0.129,-0.389 0.216,-0.82 0.216,-1.209 l 0,-3.624 z" /><path
       style="fill:#868686"
       id="path51"
       d="m 433.3225,96.989 c 0,-2.158 -0.044,-3.927 -0.173,-5.653 l 3.322,0 0.173,3.366 0.13,0 c 1.165,-1.985 3.106,-3.841 6.559,-3.841 2.849,0 5.006,1.727 5.912,4.186 l 0.086,0 c 0.647,-1.165 1.468,-2.071 2.33,-2.718 1.252,-0.95 2.633,-1.468 4.617,-1.468 2.762,0 6.861,1.813 6.861,9.063 l 0,12.298 -3.711,0 0,-11.823 c 0,-4.014 -1.467,-6.43 -4.531,-6.43 -2.157,0 -3.84,1.597 -4.487,3.452 -0.173,0.518 -0.302,1.208 -0.302,1.898 l 0,12.902 -3.711,0 0,-12.514 c 0,-3.323 -1.468,-5.739 -4.358,-5.739 -2.374,0 -4.1,1.898 -4.704,3.797 -0.216,0.562 -0.302,1.208 -0.302,1.855 l 0,12.601 -3.711,0 0,-15.232 z" /><path
       style="fill:#868686"
       id="path53"
       d="m 471.4275,102.469 c 0.086,5.135 3.365,7.249 7.163,7.249 2.719,0 4.358,-0.475 5.782,-1.079 l 0.647,2.719 c -1.338,0.604 -3.625,1.295 -6.947,1.295 -6.43,0 -10.271,-4.229 -10.271,-10.529 0,-6.3 3.711,-11.263 9.796,-11.263 6.817,0 8.63,5.998 8.63,9.839 0,0.776 -0.086,1.381 -0.129,1.77 l -14.671,0 z m 11.133,-2.719 c 0.043,-2.417 -0.992,-6.171 -5.265,-6.171 -3.84,0 -5.523,3.538 -5.825,6.171 l 11.09,0 z" /><path
       style="fill:#868686"
       id="path55"
       d="m 490.4145,108.337 c 1.122,0.733 3.107,1.511 5.006,1.511 2.762,0 4.057,-1.381 4.057,-3.107 0,-1.813 -1.079,-2.805 -3.884,-3.841 -3.754,-1.337 -5.523,-3.408 -5.523,-5.911 0,-3.366 2.719,-6.128 7.206,-6.128 2.114,0 3.97,0.604 5.136,1.295 l -0.95,2.762 c -0.819,-0.518 -2.33,-1.208 -4.271,-1.208 -2.244,0 -3.495,1.294 -3.495,2.848 0,1.726 1.251,2.503 3.97,3.538 3.625,1.381 5.48,3.193 5.48,6.301 0,3.668 -2.849,6.257 -7.811,6.257 -2.287,0 -4.401,-0.562 -5.869,-1.424 l 0.948,-2.893 z" /></g><g
     id="g4210"><g
       id="g4204"><path
         id="path3404"
         d="m 32.839598,119.49908 c -15.474417,-2.57336 2.063786,-8.24974 26.538201,-6.39719 13.79632,1.0443 17.68345,3.44476 11.907274,5.17794 -6.623472,1.98741 -22.333908,3.89856 -38.445475,1.21925 z"
         style="fill:#868686;fill-opacity:1" /><path
         id="path3402"
         d="m 99.185498,118.56433 c -12.737998,-2.1377 -9.190683,-5.08228 7.554992,-6.2713 23.6361,-1.67828 44.32853,2.42713 27.67953,5.98458 -8.9149,1.90487 -30.59912,1.06464 -35.234522,0.28672 z"
         style="fill:#868686;fill-opacity:1" /><path
         id="path3390"
         d="m 40.126249,118.41841 c -8.055307,-1.23985 -6.424226,-3.20012 3.431146,-4.12365 6.406134,-0.6003 16.575042,0.0719 19.944707,1.31842 5.352256,1.97993 -13.802987,4.27866 -23.375853,2.80523 z"
         style="fill:#3f3e3e;fill-opacity:1" /><path
         id="path3388"
         d="m 105.98614,117.45055 c -7.241409,-1.40432 -4.99875,-3.17704 5.08154,-4.01673 6.4783,-0.53964 18.33889,0.51653 19.56455,1.74219 2.30218,2.3022 -15.86027,3.97837 -24.64609,2.27454 z"
         style="fill:#3f3e3e;fill-opacity:1" /></g><path
       style="fill:#009de0;fill-opacity:1"
       d="M 48.640361,96.12462 C 41.84161,92.978316 35.343303,86.494714 32.129456,79.651095 30.820885,76.864611 27.993568,72.693795 25.846511,70.382618 1.3213822,43.98271 31.019283,3.9601677 66.162116,16.051079 c 41.183314,14.16914 28.146259,69.291676 -15.558503,65.783476 -3.129675,-0.251217 -5.690301,-0.291429 -5.690301,-0.08933 0,1.280946 5.148212,10.154505 7.699259,13.27058 3.592327,4.388013 3.293738,4.471371 -3.97221,1.108842 z m 8.09477,-25.635305 c 2.649562,-1.207224 3.248267,-6.313356 0.848225,-7.234337 -4.514086,-1.732218 -8.276286,0.02262 -8.276286,3.860375 0,4.110366 2.910423,5.432334 7.428061,3.373962 z m 0.639292,-13.227403 c 0.206101,-1.427314 1.094332,-2.110111 3.338795,-2.566594 C 70.508313,52.703174 74.108272,37.332753 65.885123,32.613314 52.931557,25.179 35.181979,35.312579 44.084565,45.059667 c 4.411661,4.830154 15.340695,1.843314 12.120811,-3.312548 -1.532527,-2.453955 -5.140798,-2.535111 -5.140798,-0.115623 0,1.837729 -0.681238,2.115352 -3.003763,1.224114 -2.622146,-1.006213 -1.436151,-3.72438 3.15638,-7.234046 2.570272,-1.964235 8.412509,0.211379 10.106436,3.763574 2.015888,4.227349 0.998581,7.241295 -3.032407,8.984034 -6.545793,2.829986 -7.377529,3.326088 -8.222126,4.904221 -1.207066,2.255436 -0.155598,4.874149 2.13547,5.318456 4.124265,0.799818 4.89079,0.60263 5.169855,-1.329936 z m 56.302007,31.707607 c 2.56123,-3.125645 7.69144,-11.93079 7.68746,-13.194248 -5.4e-4,-0.171466 -4.05378,-0.314379 -9.00722,-0.317582 -9.33234,-0.0061 -14.860468,-1.284366 -20.539513,-4.749574 l -2.74574,-1.675381 2.74574,-5.544103 C 97.799596,51.409116 95.374288,34.883435 86.050198,24.193493 78.981958,16.089846 103.36534,5.3637699 120.50117,9.0387453 c 27.19099,5.8314187 37.96317,35.5897557 19.97909,55.1925967 -2.12033,2.311177 -4.92021,6.424964 -6.22199,9.141745 -4.24312,8.855439 -12.48351,16.022611 -21.60633,18.792324 -1.97267,0.598911 -1.90045,0.373603 1.02449,-3.195892 z m 4.89989,-26.654671 c 2.47942,-2.358451 2.33447,-7.905207 -0.23723,-9.076941 -7.4455,-3.392401 -12.71582,1.220034 -9.14522,8.003629 1.81177,3.442076 6.34682,3.960863 9.38245,1.073312 z M 117.37543,45.3662 c 1.26112,-8.586978 2.46764,-14.059179 3.61416,-16.39195 2.63406,-5.35947 2.12504,-5.796578 -6.75002,-5.796578 l -8.00404,0 0.53982,2.150786 c 0.29689,1.182938 0.74834,5.038473 1.00321,8.567852 1.0566,14.631008 1.10831,14.765217 5.68956,14.765217 3.28399,0 3.44305,-0.134146 3.90731,-3.295327 z"
       id="path3348" /></g><g
     id="g4218"><path
       id="path4354"
       style="font-style:normal;font-variant:normal;font-weight:600;font-stretch:normal;font-size:77.5px;line-height:125%;font-family:'Myriad Pro';-inkscape-font-specification:'Myriad Pro, Semi-Bold';text-align:start;letter-spacing:0px;word-spacing:0px;writing-mode:lr-tb;text-anchor:start;fill:#3f3e3e;fill-opacity:1;stroke:none;stroke-width:1px;stroke-linecap:butt;stroke-linejoin:miter;stroke-opacity:1"
       d="m 218.32102,64.120498 c -4.2625,-0.8525 -9.3,-1.9375 -13.795,-3.177499 l 0,-0.310001 c 7.6725,-3.0225 13.485,-11.47 13.485,-24.1025 0,-14.725 -8.99,-26.35 -24.1025,-26.35 -14.9575,0 -24.955,11.315 -24.955,27.435 0,16.9725 10.7725,25.885001 22.8625,26.505 1.1625,0.0775 2.2475,0.3875 3.41,0.775001 6.5875,2.5575 13.0975,4.7275 20.3825,6.742499 l 2.7125,-7.5175 z m -24.8775,-7.6725 c -9.145,0 -14.4925,-8.6025 -14.415,-19.065 -0.0775,-10.4625 5.0375,-19.53 14.57,-19.53 9.455,0 14.3375,9.145 14.3375,19.1425 0,10.9275 -5.27,19.4525 -14.4925,19.4525 z" /><path
       id="path4356"
       style="font-style:normal;font-variant:normal;font-weight:600;font-stretch:normal;font-size:77.5px;line-height:125%;font-family:'Myriad Pro';-inkscape-font-specification:'Myriad Pro, Semi-Bold';text-align:start;letter-spacing:0px;word-spacing:0px;writing-mode:lr-tb;text-anchor:start;fill:#3f3e3e;fill-opacity:1;stroke:none;stroke-width:1px;stroke-linecap:butt;stroke-linejoin:miter;stroke-opacity:1"
       d="m 259.86344,25.525498 -9.5325,0 0,22.785001 c 0,1.085 -0.2325,2.0925 -0.5425,2.945 -1.0075,2.4025 -3.4875,5.115 -7.285,5.115 -5.0375,0 -7.0525,-4.03 -7.0525,-10.3075 l 0,-20.5375 -9.5325,0 0,22.165 c 0,12.3225 6.2775,16.43 13.175,16.43 6.7425,0 10.4625,-3.875 12.09,-6.5875 l 0.155,0 0.465,5.735 8.37,0 c -0.155,-3.1 -0.31,-6.82 -0.31,-11.315 l 0,-26.4275 z" /><path
       id="path4358"
       style="font-style:normal;font-variant:normal;font-weight:600;font-stretch:normal;font-size:77.5px;line-height:125%;font-family:'Myriad Pro';-inkscape-font-specification:'Myriad Pro, Semi-Bold';text-align:start;letter-spacing:0px;word-spacing:0px;writing-mode:lr-tb;text-anchor:start;fill:#3f3e3e;fill-opacity:1;stroke:none;stroke-width:1px;stroke-linecap:butt;stroke-linejoin:miter;stroke-opacity:1"
       d="m 299.95879,63.267999 c -0.3875,-2.325 -0.5425,-5.6575 -0.5425,-9.0675 l 0,-13.64 c 0,-8.215 -3.4875,-15.887501 -15.5775,-15.887501 -5.9675,0 -10.85,1.627501 -13.64,3.332501 l 1.86,6.2 c 2.5575,-1.6275 6.4325,-2.79 10.1525,-2.79 6.665,0 7.6725,4.1075 7.6725,6.5875 l 0,0.62 c -13.95,-0.0775 -22.3975,4.727499 -22.3975,14.259999 0,5.735 4.2625,11.2375 11.8575,11.2375 4.8825,0 8.835,-2.0925 11.16,-5.0375 l 0.2325,0 0.62,4.185 8.6025,0 z m -9.8425,-13.2525 c 0,0.62 -0.0775,1.395 -0.31,2.0925 -0.8525,2.7125 -3.6425,5.1925 -7.44,5.1925 -3.0225,0 -5.425,-1.705 -5.425,-5.425 0,-5.735 6.4325,-7.2075 13.175,-7.0525 l 0,5.1925 z" /><path
       id="path4360"
       style="font-style:normal;font-variant:normal;font-weight:600;font-stretch:normal;font-size:77.5px;line-height:125%;font-family:'Myriad Pro';-inkscape-font-specification:'Myriad Pro, Semi-Bold';text-align:start;letter-spacing:0px;word-spacing:0px;writing-mode:lr-tb;text-anchor:start;fill:#3f3e3e;fill-opacity:1;stroke:none;stroke-width:1px;stroke-linecap:butt;stroke-linejoin:miter;stroke-opacity:1"
       d="m 309.47676,63.267999 9.61,0 0,-22.165 c 0,-1.085 0.0775,-2.2475 0.3875,-3.1 1.0075,-2.8675 3.6425,-5.58 7.44,-5.58 5.1925,0 7.2075,4.1075 7.2075,9.5325 l 0,21.3125 9.5325,0 0,-22.3975 c 0,-11.935 -6.82,-16.197501 -13.4075,-16.197501 -6.2775,0 -10.385,3.565001 -12.0125,6.510001 l -0.2325,0 -0.465,-5.6575 -8.37,0 c 0.2325,3.255 0.31,6.8975 0.31,11.2375 l 0,26.505 z" /><path
       id="path4362"
       style="font-style:normal;font-variant:normal;font-weight:600;font-stretch:normal;font-size:77.5px;line-height:125%;font-family:'Myriad Pro';-inkscape-font-specification:'Myriad Pro, Semi-Bold';text-align:start;letter-spacing:0px;word-spacing:0px;writing-mode:lr-tb;text-anchor:start;fill:#3f3e3e;fill-opacity:1;stroke:none;stroke-width:1px;stroke-linecap:butt;stroke-linejoin:miter;stroke-opacity:1"
       d="m 379.09234,8.2429985 0,21.3899995 -0.155,0 c -1.705,-2.79 -5.425,-4.96 -10.6175,-4.96 -9.0675,0 -16.9725,7.5175 -16.895,20.15 0,11.625 7.13,19.2975 16.12,19.2975 5.5025,0 10.075,-2.635 12.3225,-6.82 l 0.155,0 0.3875,5.9675 8.525,0 c -0.155,-2.5575 -0.31,-6.7425 -0.31,-10.6175 l 0,-44.4074995 -9.5325,0 z m 0,38.6724995 c 0,1.0075 -0.0775,1.9375 -0.31,2.79 -0.93,4.1075 -4.34,6.7425 -8.215,6.7425 -6.045,0 -9.455,-5.0375 -9.455,-11.935 0,-7.0525 3.41,-12.4775 9.5325,-12.4775 4.34,0 7.3625,3.0225 8.215,6.7425 0.155,0.775 0.2325,1.705 0.2325,2.48 l 0,5.6575 z" /><path
       id="path4364"
       style="font-style:normal;font-variant:normal;font-weight:600;font-stretch:normal;font-size:77.5px;line-height:125%;font-family:'Myriad Pro';-inkscape-font-specification:'Myriad Pro, Semi-Bold';text-align:start;letter-spacing:0px;word-spacing:0px;writing-mode:lr-tb;text-anchor:start;fill:#3f3e3e;fill-opacity:1;stroke:none;stroke-width:1px;stroke-linecap:butt;stroke-linejoin:miter;stroke-opacity:1"
       d="m 428.6209,63.267999 c -0.3875,-2.325 -0.5425,-5.6575 -0.5425,-9.0675 l 0,-13.64 c 0,-8.215 -3.4875,-15.887501 -15.5775,-15.887501 -5.9675,0 -10.85,1.627501 -13.64,3.332501 l 1.86,6.2 c 2.5575,-1.6275 6.4325,-2.79 10.1525,-2.79 6.665,0 7.6725,4.1075 7.6725,6.5875 l 0,0.62 c -13.95,-0.0775 -22.3975,4.727499 -22.3975,14.259999 0,5.735 4.2625,11.2375 11.8575,11.2375 4.8825,0 8.835,-2.0925 11.16,-5.0375 l 0.2325,0 0.62,4.185 8.6025,0 z m -9.8425,-13.2525 c 0,0.62 -0.0775,1.395 -0.31,2.0925 -0.8525,2.7125 -3.6425,5.1925 -7.44,5.1925 -3.0225,0 -5.425,-1.705 -5.425,-5.425 0,-5.735 6.4325,-7.2075 13.175,-7.0525 l 0,5.1925 z" /></g></svg>