<?xml version="1.0" encoding="UTF-8" standalone="no"?>
<svg
   xmlns:dc="http://purl.org/dc/elements/1.1/"
   xmlns:cc="http://creativecommons.org/ns#"
   xmlns:rdf="http://www.w3.org/1999/02/22-rdf-syntax-ns#"
   xmlns:svg="http://www.w3.org/2000/svg"
   xmlns="http://www.w3.org/2000/svg"
   xmlns:sodipodi="http://sodipodi.sourceforge.net/DTD/sodipodi-0.dtd"
   xmlns:inkscape="http://www.inkscape.org/namespaces/inkscape"
   xml:space="preserve"
   enable-background="new 0 0 841.89 595.276"
   viewBox="0 0 1200 320"
   height="320"
   width="1200"
   y="0px"
   x="0px"
   id="Livello_1"
   version="1.1"
   inkscape:version="0.91 r13725"
   sodipodi:docname="quanda_slider.svg"><sodipodi:namedview
     pagecolor="#ffffff"
     bordercolor="#666666"
     borderopacity="1"
     objecttolerance="10"
     gridtolerance="10"
     guidetolerance="10"
     inkscape:pageopacity="0"
     inkscape:pageshadow="2"
     inkscape:window-width="1600"
     inkscape:window-height="841"
     id="namedview4729"
     showgrid="false"
     inkscape:zoom="0.85147442"
     inkscape:cx="600"
     inkscape:cy="222.14915"
     inkscape:window-x="-8"
     inkscape:window-y="-8"
     inkscape:window-maximized="1"
     inkscape:current-layer="Livello_1" /><metadata
     id="metadata93"><rdf:RDF><cc:Work
         rdf:about=""><dc:format>image/svg+xml</dc:format><dc:type
           rdf:resource="http://purl.org/dc/dcmitype/StillImage" /><dc:title></dc:title></cc:Work></rdf:RDF></metadata><defs
     id="defs91" /><g
     transform="translate(-174.3655,-49.421)"
     id="g21" /><path
     inkscape:connector-curvature="0"
     id="path3348"
     d="m 490.92739,291.22545 c -20.75752,-9.60609 -40.59775,-29.40144 -50.41007,-50.29596 -3.99525,-8.50751 -12.62744,-21.2416 -19.1827,-28.29792 C 346.45601,132.029 437.12781,9.8346493 544.42373,46.749868 670.16208,90.01021 630.35815,258.30691 496.92147,247.59589 c -9.55533,-0.76698 -17.37327,-0.88974 -17.37327,-0.27264 0,3.91092 15.7182,31.00312 23.5069,40.51691 10.96787,13.39723 10.05623,13.65174 -12.12771,3.38547 z m 24.71445,-78.26814 c 8.08948,-3.68581 9.91741,-19.27553 2.58975,-22.08741 -13.78213,-5.28871 -25.26864,0.069 -25.26864,11.78624 0,12.54953 8.88592,16.58569 22.67889,10.30117 z m 1.95185,-40.38508 c 0.62925,-4.35778 3.34115,-6.44246 10.1938,-7.83616 29.90578,-6.0823 40.89695,-53.01032 15.79054,-67.419425 -39.54902,-22.697976 -93.74094,8.241245 -66.56011,38.000455 13.46941,14.74712 46.83726,5.62788 37.00651,-10.11367 -4.67902,-7.49228 -15.69557,-7.74004 -15.69557,-0.353 0,5.61081 -2.07991,6.45845 -9.1709,3.73737 -8.00578,-3.07209 -4.38477,-11.37104 9.63686,-22.08655 7.8474,-5.99707 25.68455,0.64537 30.85635,11.49073 6.15478,12.90668 3.0488,22.10866 -9.25836,27.42948 -19.98521,8.64035 -22.52462,10.15502 -25.10329,14.97327 -3.68534,6.88617 -0.47506,14.88145 6.51989,16.23799 12.59195,2.44196 14.93226,1.83991 15.78428,-4.06049 z m 171.89781,96.80771 c 7.81979,-9.54304 23.48303,-36.42635 23.47087,-40.28387 -0.002,-0.52352 -12.37675,-0.95984 -27.50028,-0.96961 -28.49293,-0.0183 -45.37107,-3.92136 -62.70997,-14.50113 l -8.38313,-5.11516 8.38313,-16.92691 c 18.26521,-36.88041 10.86041,-87.33563 -17.60733,-119.973489 -21.58031,-24.741533 52.86552,-57.489737 105.18358,-46.269515 83.01785,17.8041 115.9068,108.660424 60.99892,168.510604 -6.47366,7.05635 -15.02208,19.61632 -18.99659,27.91103 -12.95483,27.03688 -38.11388,48.91924 -65.96711,57.37555 -6.02284,1.82855 -5.80234,1.14065 3.12791,-9.7575 z m 14.96004,-81.38039 c 7.57001,-7.20067 7.12746,-24.1357 -0.7243,-27.71315 -22.73214,-10.35747 -38.82315,3.72492 -27.92162,24.43619 5.53159,10.50911 19.37772,12.09305 28.64592,3.27696 z m -3.66649,-51.74657 c 3.85038,-26.21723 7.53405,-42.924619 11.03453,-50.046888 8.04215,-16.363203 6.48804,-17.69776 -20.60874,-17.69776 l -24.43744,0 1.64815,6.566659 c 0.90644,3.61168 2.28478,15.383145 3.06293,26.158829 3.22595,44.6705 3.38383,45.08026 17.37102,45.08026 10.02647,0 10.5121,-0.40958 11.92955,-10.0611 z"
     style="fill:#009de0;fill-opacity:1" /><path
     style="fill:#009de0;fill-opacity:1"
     d="M 81.147958,274.85036 C 70.593486,269.966 60.505421,259.90076 55.5162,249.27663 53.484756,244.95086 49.095589,238.47602 45.762469,234.88813 7.6893188,193.90455 53.792753,131.773 108.34897,150.5431 c 63.93355,21.99636 43.69465,107.56934 -24.153232,102.12316 -4.858551,-0.38998 -8.8337,-0.4524 -8.8337,-0.13863 0,1.98857 7.992155,15.764 11.952436,20.60143 5.576777,6.81203 5.11324,6.94144 -6.166516,1.7214 z m 12.566432,-39.7966 c 4.113217,-1.87411 5.042656,-9.80093 1.316797,-11.23068 -7.00773,-2.68912 -12.848218,0.0351 -12.848218,5.99289 0,6.381 4.518179,8.43325 11.531421,5.23779 z m 0.992448,-20.5344 c 0.319951,-2.21578 1.698857,-3.27577 5.18319,-3.98441 15.206042,-3.09264 20.794662,-26.95389 8.028932,-34.28042 -20.109287,-11.54112 -47.663983,4.19039 -33.84348,19.3219 6.848723,7.49839 23.815106,2.86158 18.816514,-5.14245 -2.379118,-3.80956 -7.980648,-3.93553 -7.980648,-0.17949 0,2.8529 -1.057561,3.2839 -4.663081,1.90033 -4.070659,-1.56205 -2.229502,-5.78178 4.900006,-11.23024 3.990128,-3.0493 13.059694,0.32815 15.689369,5.84263 3.12949,6.5626 1.55021,11.24148 -4.707548,13.94693 -10.161779,4.39332 -11.45298,5.16347 -12.764144,7.61339 -1.873866,3.50137 -0.241551,7.56669 3.315136,8.25645 6.402566,1.24165 7.592531,0.93553 8.025754,-2.06462 z m 87.404012,49.22333 c 3.97609,-4.8523 11.9403,-18.52153 11.93412,-20.48294 -0.001,-0.26619 -6.29315,-0.48804 -13.98293,-0.49301 -14.48766,-0.009 -23.0696,-1.99388 -31.88582,-7.37332 l -4.26253,-2.60088 4.26253,-8.60674 c 9.28722,-18.7524 5.52213,-44.40711 -8.95271,-61.00231 -10.97284,-12.58021 26.88026,-29.23152 53.48216,-23.52643 42.21167,9.05276 58.93455,55.25002 31.01582,85.68174 -3.29163,3.5879 -7.63821,9.97421 -9.6591,14.19178 -6.58708,13.7473 -19.37958,24.87372 -33.54197,29.17346 -3.0624,0.92975 -2.95029,0.57998 1.59043,-4.96135 z m 7.60666,-41.37908 c 3.84908,-3.66129 3.62406,-12.27216 -0.36828,-14.09117 -11.5585,-5.26641 -19.74021,1.894 -14.19717,12.42495 2.81262,5.34352 9.85289,6.14889 14.56545,1.66622 z m -1.86428,-26.31132 c 1.95778,-13.33054 3.8308,-21.82566 5.61067,-25.44709 4.08915,-8.32011 3.29894,-8.99869 -10.47882,-8.99869 l -12.42558,0 0.83802,3.33892 c 0.46089,1.83641 1.16173,7.82179 1.55739,13.30085 1.64029,22.71338 1.72056,22.92173 8.83256,22.92173 5.09811,0 5.34503,-0.20826 6.06576,-5.11572 z"
     id="path5285"
     inkscape:connector-curvature="0" /><path
     inkscape:connector-curvature="0"
     id="path5287"
     d="m 1045.1387,251.125 c -7.1452,-3.30659 -13.9745,-10.12052 -17.3521,-17.3128 -1.3753,-2.92845 -4.3466,-7.31176 -6.6031,-9.74068 -25.77455,-27.74491 5.4363,-69.80649 42.3696,-57.09958 43.2814,14.89102 29.5802,72.82189 -16.3512,69.13496 -3.2891,-0.26401 -5.9802,-0.30627 -5.9802,-0.0938 0,1.34621 5.4105,10.67185 8.0916,13.94667 3.7753,4.61159 3.4615,4.69919 -4.1746,1.16535 z m 8.5071,-26.94135 c 2.7846,-1.26873 3.4138,-6.635 0.8915,-7.6029 -4.7441,-1.82047 -8.6979,0.0238 -8.6979,4.05704 0,4.31979 3.0587,5.70911 7.8064,3.54586 z m 0.6719,-13.9013 c 0.2166,-1.50003 1.1501,-2.21762 3.5089,-2.69735 10.2941,-2.09364 14.0774,-18.24714 5.4354,-23.20703 -13.6135,-7.81306 -32.2674,2.83679 -22.9112,13.08047 4.6364,5.07623 16.1222,1.93722 12.7383,-3.48132 -1.6106,-2.57898 -5.4027,-2.66426 -5.4027,-0.12151 0,1.93135 -0.716,2.22312 -3.1568,1.28648 -2.7558,-1.05747 -1.5093,-3.91413 3.3172,-7.60261 2.7012,-2.0643 8.8411,0.22215 10.6213,3.95532 2.1185,4.44273 1.0495,7.61022 -3.1869,9.44174 -6.8793,2.97418 -7.7534,3.49555 -8.641,5.15409 -1.2686,2.37034 -0.1635,5.12247 2.2443,5.58942 4.3344,0.84057 5.1399,0.63333 5.4332,-1.3977 z m 59.1704,33.32303 c 2.6917,-3.2849 8.0833,-12.53864 8.0791,-13.86647 -7e-4,-0.1802 -4.2603,-0.33039 -9.4661,-0.33375 -9.8078,-0.006 -15.6176,-1.34981 -21.586,-4.99157 l -2.8856,-1.76073 2.8856,-5.82656 c 6.2873,-12.69493 3.7384,-30.06256 -6.0607,-41.29711 -7.4284,-8.51651 18.1973,-19.78905 36.2062,-15.92684 28.5762,6.12851 39.8972,37.40295 20.9969,58.0045 -2.2283,2.42893 -5.1709,6.75231 -6.539,9.6075 -4.4593,9.3066 -13.1195,16.83892 -22.7071,19.74974 -2.0732,0.62942 -1.9973,0.39263 1.0767,-3.35871 z m 5.1495,-28.01266 c 2.6058,-2.4786 2.4534,-8.30796 -0.2493,-9.53939 -7.8248,-3.56523 -13.3637,1.2822 -9.6111,8.4114 1.904,3.61744 6.6702,4.16265 9.8604,1.12799 z m -1.2621,-17.81214 c 1.3254,-9.02446 2.5934,-14.77545 3.7983,-17.22707 2.7683,-5.63252 2.2333,-6.0919 -7.0939,-6.0919 l -8.4118,0 0.5673,2.26037 c 0.312,1.2432 0.7865,5.29516 1.0543,9.00436 1.1105,15.37642 1.1648,15.51746 5.9795,15.51746 3.4513,0 3.6184,-0.14098 4.1063,-3.46322 z"
     style="fill:#009de0;fill-opacity:1" /><path
     inkscape:connector-curvature="0"
     id="path5289"
     d="m 63.548441,99.709686 c -5.54685,-2.56695 -10.84857,-7.85667 -13.47062,-13.44012 -1.06762,-2.27339 -3.37432,-5.6762 -5.126017,-7.5618 -20.009124,-21.53868 4.220267,-54.19155 32.891967,-44.32703 33.599909,11.56006 22.963469,56.53243 -12.69359,53.67023 -2.55338,-0.20496 -4.6425,-0.23776 -4.6425,-0.0729 0,1.04508 4.20023,8.28468 6.28153,10.82696 2.93085,3.580024 2.68724,3.648034 -3.24077,0.90467 z m 6.60421,-20.91487 c 2.16168,-0.98493 2.65014,-5.15082 0.69204,-5.90222 -3.68288,-1.41325 -6.75231,0.0185 -6.75231,3.14953 0,3.3535 2.37451,4.43205 6.06027,2.75269 z m 0.52158,-10.79173 c 0.16815,-1.16449 0.89282,-1.72157 2.724,-2.09399 7.99144,-1.62532 10.92851,-14.16546 4.21955,-18.01587 -10.56832,-6.06537 -25.04953,2.20223 -17.78624,10.15451 3.5993,3.94073 12.51589,1.50389 9.88891,-2.70258 -1.25034,-2.0021 -4.19419,-2.0683 -4.19419,-0.0943 0,1.49932 -0.55579,1.72583 -2.45065,0.9987 -2.13931,-0.82092 -1.1717,-3.03858 2.57517,-5.90198 2.09699,-1.60255 6.86344,0.17245 8.24546,3.07056 1.64468,3.44893 0.8147,5.90789 -2.47403,7.32972 -5.34046,2.30889 -6.01905,2.71363 -6.70812,4.00118 -0.9848,1.84012 -0.12695,3.97663 1.74225,4.33912 3.36483,0.65255 3.99021,0.49167 4.21789,-1.08504 z m 45.934669,25.86903 c 2.08961,-2.5501 6.27515,-9.73388 6.2719,-10.76469 -5.2e-4,-0.13989 -3.30732,-0.25649 -7.34864,-0.2591 -7.61391,-0.005 -12.1241,-1.04787 -16.757409,-3.875 l -2.24015,-1.36688 2.24015,-4.52322 c 4.880839,-9.85522 2.902119,-23.3379 -4.70504,-32.05941 -5.76672,-6.61146 14.126759,-15.36245 28.107229,-12.36418 22.1841,4.75763 30.97271,29.03633 16.30018,45.02954 -1.72989,1.8856 -4.01421,5.24189 -5.07628,7.45841 -3.4618,7.22481 -10.18482,13.07223 -17.62778,15.33194 -1.60943,0.48862 -1.55051,0.3048 0.83584,-2.60741 z m 3.99763,-21.74653 c 2.02286,-1.92417 1.90461,-6.44957 -0.19355,-7.40554 -6.0745,-2.76773 -10.37435,0.99538 -7.46124,6.52986 1.47816,2.80826 5.17813,3.23152 7.65479,0.87568 z m -0.97976,-13.82776 c 1.0289,-7.00579 2.01326,-11.47035 2.94866,-13.37357 2.14902,-4.37259 1.73373,-4.72921 -5.50709,-4.72921 l -6.53019,0 0.44042,1.75475 c 0.24222,0.96511 0.61054,4.11069 0.81848,6.99018 0.86204,11.93688 0.90423,12.04638 4.6419,12.04638 2.67928,0 2.80905,-0.10945 3.18782,-2.68853 z"
     style="fill:#009de0;fill-opacity:1" /><path
     style="fill:#009de0;fill-opacity:1"
     d="m 292.3799,131.33069 c -2.98044,-1.37927 -5.82916,-4.22154 -7.23804,-7.22164 -0.57365,-1.22154 -1.81309,-3.04994 -2.75431,-4.06311 -10.75131,-11.57316 2.26764,-29.118201 17.67351,-23.817798 18.0539,6.211448 12.33873,30.376008 -6.82052,28.838088 -1.37198,-0.11013 -2.4945,-0.12775 -2.4945,-0.0392 0,0.56154 2.25686,4.45152 3.37519,5.81754 1.5748,1.92362 1.44391,1.96016 -1.74133,0.4861 z m 3.54857,-11.23797 c 1.16152,-0.52923 1.42398,-2.76764 0.37185,-3.17138 -1.97889,-0.75937 -3.62815,0.01 -3.62815,1.6923 0,1.8019 1.27587,2.38143 3.2563,1.47908 z m 0.28026,-5.79862 c 0.0904,-0.6257 0.47973,-0.92503 1.46366,-1.12514 4.29396,-0.87332 5.8721,-7.61139 2.26725,-9.68029 -5.67857,-3.25904 -13.45962,1.1833 -9.55691,5.45622 1.93398,2.11744 6.72504,0.80807 5.31351,-1.45215 -0.67183,-1.07576 -2.25362,-1.11134 -2.25362,-0.0507 0,0.80562 -0.29864,0.92733 -1.31678,0.53663 -1.1495,-0.4411 -0.62958,-1.63269 1.38369,-3.17126 1.12675,-0.86108 3.68786,0.0927 4.43045,1.64988 0.88372,1.85318 0.43775,3.17442 -1.32935,3.9384 -2.86953,1.24062 -3.23415,1.45809 -3.60441,2.14992 -0.52915,0.98873 -0.0682,2.13672 0.93615,2.33149 1.80799,0.35063 2.14402,0.26419 2.26636,-0.58301 z m 24.68161,13.89995 c 1.12279,-1.37022 3.37176,-5.23021 3.37002,-5.78408 -2.8e-4,-0.0752 -1.77709,-0.13782 -3.94857,-0.13922 -4.09111,-0.003 -6.51453,-0.56304 -9.00409,-2.08212 l -1.20368,-0.73445 1.20368,-2.43042 c 2.62257,-5.2954 1.55936,-12.53992 -2.52811,-17.226158 -3.09858,-3.55247 7.59058,-8.254551 15.10257,-6.64352 11.91996,2.55637 16.64226,15.601798 8.75841,24.195268 -0.9295,1.01317 -2.15691,2.81658 -2.72758,4.00756 -1.8601,3.88203 -5.47251,7.02397 -9.47176,8.23816 -0.86478,0.26254 -0.83312,0.16377 0.44911,-1.40102 z m 2.14801,-11.68484 c 1.08692,-1.0339 1.02338,-3.46549 -0.104,-3.97915 -3.26395,-1.48716 -5.57435,0.53484 -4.00908,3.50863 0.79425,1.50893 2.78232,1.73636 4.11308,0.47052 z m -0.52645,-7.42994 c 0.55285,-3.76435 1.08177,-6.16325 1.58438,-7.18588 1.15471,-2.349478 0.93156,-2.541098 -2.95907,-2.541098 l -3.50881,0 0.23665,0.942858 c 0.13015,0.51857 0.32806,2.20875 0.43979,3.75596 0.46319,6.41393 0.48586,6.47276 2.49418,6.47276 1.43963,0 1.50936,-0.0588 1.71288,-1.4446 z"
     id="path5291"
     inkscape:connector-curvature="0" /><path
     style="fill:#009de0;fill-opacity:1"
     d="m 879.93566,112.47184 c -4.67052,-2.1614 -9.13463,-6.61541 -11.34244,-11.31674 -0.89894,-1.914223 -2.84121,-4.779433 -4.31616,-6.367123 -16.84792,-18.13583 3.55352,-45.629931 27.69544,-37.323891 28.29151,9.733706 19.3355,47.600984 -10.68819,45.190974 -2.14995,-0.17258 -3.90904,-0.2002 -3.90904,-0.0614 0,0.87997 3.53667,6.9758 5.28916,9.11643 2.46781,3.01442 2.26266,3.07169 -2.72877,0.76174 z m 5.56082,-17.610573 c 1.82015,-0.82932 2.23146,-4.33705 0.5827,-4.96974 -3.10101,-1.18997 -5.68551,0.0155 -5.68551,2.65194 0,2.82369 1.99936,3.73184 5.10281,2.3178 z m 0.43915,-9.08677 c 0.1416,-0.98051 0.75178,-1.44957 2.29364,-1.76315 6.72893,-1.36854 9.20197,-11.92749 3.55295,-15.16958 -8.89866,-5.107115 -21.09202,1.8543 -14.97624,8.55022 3.03065,3.31814 10.53852,1.26629 8.32657,-2.27561 -1.05278,-1.68579 -3.53153,-1.74153 -3.53153,-0.0794 0,1.26245 -0.468,1.45317 -2.06349,0.84092 -1.80134,-0.69123 -0.98658,-2.55852 2.16832,-4.96954 1.76568,-1.34936 5.77911,0.14521 6.94274,2.58545 1.38485,2.90404 0.68603,4.97452 -2.08313,6.17172 -4.49674,1.9441 -5.06812,2.28491 -5.6483,3.36903 -0.82923,1.54941 -0.10691,3.34837 1.46698,3.6536 2.83324,0.54945 3.35979,0.41398 3.55149,-0.91363 z m 38.67759,21.782043 c 1.75943,-2.14722 5.28375,-8.196053 5.28101,-9.064003 -4.5e-4,-0.11779 -2.78483,-0.21596 -6.18768,-0.21816 -6.41097,-0.004 -10.20863,-0.88232 -14.10993,-3.2628 l -1.88621,-1.15093 1.88621,-3.80861 c 4.10972,-8.2982 2.44366,-19.65078 -3.9617,-26.994397 -4.85562,-5.566924 11.89492,-12.935369 23.66665,-10.410784 18.67925,4.005977 26.07937,24.448931 13.72495,37.915401 -1.45658,1.5877 -3.38001,4.41373 -4.27431,6.28007 -2.91488,6.083383 -8.57575,11.006983 -14.84281,12.909673 -1.35516,0.41143 -1.30555,0.25665 0.70382,-2.19546 z m 3.36603,-18.310843 c 1.70328,-1.62018 1.60371,-5.43061 -0.16298,-6.23555 -5.1148,-2.33046 -8.73532,0.83812 -6.28242,5.49822 1.24461,2.36459 4.36005,2.72097 6.4454,0.73733 z m -0.82498,-11.64314 c 0.86635,-5.89896 1.69518,-9.658168 2.48281,-11.260703 1.80953,-3.681769 1.45981,-3.98205 -4.63702,-3.98205 l -5.4985,0 0.37082,1.47752 c 0.20396,0.812638 0.51412,3.461255 0.68917,5.885813 0.72586,10.051 0.76139,10.1432 3.90856,10.1432 2.25598,0 2.36524,-0.0922 2.68416,-2.26378 z"
     id="path5293"
     inkscape:connector-curvature="0" /><path
     inkscape:connector-curvature="0"
     id="path5295"
     d="m 1078.4132,104.99779 c -4.6705,-2.1614 -9.1347,-6.615413 -11.3425,-11.316743 -0.8989,-1.91422 -2.8412,-4.77943 -4.3161,-6.36712 -16.8479,-18.13583 3.5535,-45.629929 27.6954,-37.323889 28.2915,9.733706 19.3355,47.600979 -10.6882,45.190969 -2.1499,-0.17258 -3.909,-0.2002 -3.909,-0.0614 0,0.87997 3.5367,6.975803 5.2891,9.116433 2.4679,3.01442 2.2627,3.07169 -2.7287,0.76174 z m 5.5608,-17.610573 c 1.8201,-0.82932 2.2315,-4.33705 0.5827,-4.96974 -3.101,-1.18997 -5.6855,0.0155 -5.6855,2.65194 0,2.82369 1.9993,3.73184 5.1028,2.3178 z m 0.4391,-9.08677 c 0.1416,-0.98051 0.7518,-1.44957 2.2937,-1.76315 6.7289,-1.36854 9.202,-11.927488 3.5529,-15.169578 -8.8986,-5.107115 -21.092,1.8543 -14.9762,8.550218 3.0306,3.31814 10.5385,1.26629 8.3266,-2.27561 -1.0528,-1.685788 -3.5316,-1.741528 -3.5316,-0.0794 0,1.26245 -0.468,1.45317 -2.0635,0.84092 -1.8013,-0.69123 -0.9865,-2.558518 2.1684,-4.969538 1.7656,-1.34936 5.7791,0.14521 6.9427,2.58545 1.3849,2.904038 0.686,4.974518 -2.0831,6.171718 -4.4968,1.9441 -5.0681,2.28491 -5.6483,3.36903 -0.8293,1.54941 -0.1069,3.34837 1.467,3.6536 2.8332,0.54945 3.3597,0.41398 3.5514,-0.91363 z m 38.6776,21.782043 c 1.7595,-2.147223 5.2838,-8.196053 5.281,-9.064003 -4e-4,-0.11779 -2.7848,-0.21596 -6.1876,-0.21816 -6.411,-0.004 -10.2087,-0.88232 -14.11,-3.2628 l -1.8862,-1.15093 1.8862,-3.80861 c 4.1098,-8.2982 2.4437,-19.650778 -3.9617,-26.994395 -4.8556,-5.566924 11.895,-12.935369 23.6667,-10.410784 18.6792,4.005977 26.0794,24.448929 13.7249,37.915399 -1.4565,1.5877 -3.38,4.41373 -4.2743,6.28007 -2.9149,6.08338 -8.5757,11.006983 -14.8428,12.909673 -1.3551,0.41143 -1.3055,0.25665 0.7038,-2.19546 z m 3.3661,-18.310843 c 1.7032,-1.62018 1.6037,-5.43061 -0.163,-6.23555 -5.1148,-2.33046 -8.7353,0.83812 -6.2824,5.49822 1.2446,2.36459 4.36,2.72097 6.4454,0.73733 z m -0.825,-11.64314 c 0.8663,-5.898958 1.6952,-9.658166 2.4828,-11.260701 1.8095,-3.681769 1.4598,-3.98205 -4.637,-3.98205 l -5.4985,0 0.3708,1.47752 c 0.204,0.812638 0.5141,3.461255 0.6892,5.885813 0.7258,10.050998 0.7614,10.143198 3.9085,10.143198 2.256,0 2.3653,-0.0922 2.6842,-2.26378 z"
     style="fill:#009de0;fill-opacity:1" /><path
     style="fill:#009de0;fill-opacity:1"
     d="m 852.53084,264.44415 c -4.6705,-2.1614 -9.1347,-6.61541 -11.3425,-11.31674 -0.8989,-1.91422 -2.8412,-4.77943 -4.3161,-6.36712 -16.8479,-18.13583 3.5535,-45.62993 27.6954,-37.32389 28.2915,9.73371 19.3355,47.60098 -10.6882,45.19097 -2.1499,-0.17258 -3.909,-0.2002 -3.909,-0.0614 0,0.87997 3.5367,6.9758 5.2891,9.11643 2.4679,3.01442 2.2627,3.07169 -2.7287,0.76174 z m 5.5608,-17.61057 c 1.8201,-0.82932 2.2315,-4.33705 0.5827,-4.96974 -3.101,-1.18997 -5.6855,0.0155 -5.6855,2.65194 0,2.82369 1.9993,3.73184 5.1028,2.3178 z m 0.4391,-9.08677 c 0.1416,-0.98051 0.7518,-1.44957 2.2937,-1.76315 6.7289,-1.36854 9.202,-11.92748 3.5529,-15.16957 -8.8986,-5.10712 -21.092,1.8543 -14.9762,8.55021 3.0306,3.31814 10.5385,1.26629 8.3266,-2.27561 -1.0528,-1.68578 -3.5316,-1.74152 -3.5316,-0.0794 0,1.26245 -0.468,1.45317 -2.0635,0.84092 -1.8013,-0.69123 -0.9865,-2.55851 2.1684,-4.96953 1.7656,-1.34936 5.7791,0.14521 6.9427,2.58545 1.3849,2.90403 0.686,4.97451 -2.0831,6.17171 -4.4968,1.9441 -5.0681,2.28491 -5.6483,3.36903 -0.8293,1.54941 -0.1069,3.34837 1.467,3.6536 2.8332,0.54945 3.3597,0.41398 3.5514,-0.91363 z m 38.6776,21.78204 c 1.7595,-2.14722 5.2838,-8.19605 5.281,-9.064 -4e-4,-0.11779 -2.7848,-0.21596 -6.1876,-0.21816 -6.411,-0.004 -10.2087,-0.88232 -14.11,-3.2628 l -1.8862,-1.15093 1.8862,-3.80861 c 4.1098,-8.2982 2.4437,-19.65077 -3.9617,-26.99439 -4.8556,-5.56693 11.895,-12.93537 23.6667,-10.41079 18.6792,4.00598 26.0794,24.44893 13.7249,37.9154 -1.4565,1.5877 -3.38,4.41373 -4.2743,6.28007 -2.9149,6.08338 -8.5757,11.00698 -14.8428,12.90967 -1.3551,0.41143 -1.3055,0.25665 0.7038,-2.19546 z m 3.3661,-18.31084 c 1.7032,-1.62018 1.6037,-5.43061 -0.163,-6.23555 -5.1148,-2.33046 -8.7353,0.83812 -6.2824,5.49822 1.2446,2.36459 4.36,2.72097 6.4454,0.73733 z m -0.825,-11.64314 c 0.8663,-5.89895 1.6952,-9.65816 2.4828,-11.2607 1.8095,-3.68177 1.4598,-3.98205 -4.637,-3.98205 l -5.4985,0 0.3708,1.47752 c 0.204,0.81264 0.5141,3.46126 0.6892,5.88582 0.7258,10.05099 0.7614,10.14319 3.9085,10.14319 2.256,0 2.3653,-0.0922 2.6842,-2.26378 z"
     id="path5297"
     inkscape:connector-curvature="0" /><path
     style="opacity:0.2;fill:#009de0;fill-opacity:1"
     d="m 0,0 0,320 258.941,0 c 9.4311,-30.98094 45.97789,-43.13361 88.63156,-26.49052 9.87707,3.85393 15.13356,14.26545 16.31828,26.49052 l 296.34632,0 C 718.80313,224.5305 733.08463,105.87773 694.73054,0 L 480.21339,0 c 28.40862,71.874803 -14.14959,180.43068 -98.22998,197.81875 -24.67622,5.10312 -34.44184,12.73797 -36.70778,28.69424 -3.06807,21.60462 -11.49456,23.80793 -56.83793,14.86658 -25.18866,-4.96704 -36.74913,-34.24221 -23.47829,-59.45632 9.28574,-17.64227 18.4297,-23.18801 90.39602,-54.82512 C 399.67328,107.61566 410.85865,73.922856 388.69542,26.664336 383.98721,16.625039 376.35867,7.5730328 367.13879,0 L 259.17482,0 c -34.82327,31.691778 -41.22187,55.733779 -16.29471,65.460085 25.53454,9.963378 33.02366,6.86048 33.02366,-13.683803 0,-27.048022 39.67055,-26.140716 56.51961,1.292659 C 367.8237,110.70752 247.66669,144.09791 199.16362,90.10052 171.08598,58.842313 167.12928,27.231111 179.116,0 L 0,0 Z m 739.15832,0 c 31.26441,98.565432 27.74196,207.94078 -15.20813,296.12277 L 712.3201,320 1200,320 1200,0 1020.3338,0 c -5.0424,26.241175 -10.1733,57.416968 -15.3889,93.526965 -5.10419,35.339575 -6.85289,36.839785 -42.95801,36.839785 -46.4852,0 -50.56562,-1.58884 -60.04854,-130.36675 L 739.15832,0 Z m 223.70884,168.76891 c 15.61462,-0.10327 33.4869,3.87022 52.67234,12.75875 28.2741,13.09904 29.8669,75.10709 2.6074,101.47273 -33.37458,32.28059 -83.23279,26.48011 -103.15195,-11.99955 -30.05551,-58.06152 -3.13556,-101.89462 47.87221,-102.23193 z"
     id="path5299"
     inkscape:connector-curvature="0" /></svg>