<?xml version="1.0" encoding="UTF-8" standalone="no"?>
<!-- Created with Inkscape (http://www.inkscape.org/) -->

<svg
   xmlns:dc="http://purl.org/dc/elements/1.1/"
   xmlns:cc="http://creativecommons.org/ns#"
   xmlns:rdf="http://www.w3.org/1999/02/22-rdf-syntax-ns#"
   xmlns:svg="http://www.w3.org/2000/svg"
   xmlns="http://www.w3.org/2000/svg"
   xmlns:sodipodi="http://sodipodi.sourceforge.net/DTD/sodipodi-0.dtd"
   xmlns:inkscape="http://www.inkscape.org/namespaces/inkscape"
   id="svg3336"
   version="1.1"
   inkscape:version="0.91 r13725"
   width="30"
   height="30"
   viewBox="0 0 30 30"
   sodipodi:docname="quanda-logo-small-inverted.svg">
  <metadata
     id="metadata3342">
    <rdf:RDF>
      <cc:Work
         rdf:about="">
        <dc:format>image/svg+xml</dc:format>
        <dc:type
           rdf:resource="http://purl.org/dc/dcmitype/StillImage" />
        <dc:title></dc:title>
      </cc:Work>
    </rdf:RDF>
  </metadata>
  <defs
     id="defs3340" />
  <sodipodi:namedview
     pagecolor="#ff00ff"
     bordercolor="#666666"
     borderopacity="1"
     objecttolerance="10"
     gridtolerance="10"
     guidetolerance="10"
     inkscape:pageopacity="0.18431373"
     inkscape:pageshadow="2"
     inkscape:window-width="1600"
     inkscape:window-height="841"
     id="namedview3338"
     showgrid="false"
     inkscape:zoom="4.48"
     inkscape:cx="80.803571"
     inkscape:cy="32.946429"
     inkscape:window-x="-8"
     inkscape:window-y="-8"
     inkscape:window-maximized="1"
     inkscape:current-layer="svg3336" />
  <g
     id="g4146"
     transform="matrix(0.21225391,0,0,0.21225391,-1.1516208,24.551426)">
    <path
       inkscape:connector-curvature="0"
       id="path4167"
       d="m 39.337543,0.5866 c -7.25326,-3.35664 -14.18599,-10.27369 -17.61469,-17.57481 -1.39605,-2.97277 -4.41238,-7.422412 -6.70297,-9.888097 -26.16468,-28.16479 5.51858,-70.862908 43.01078,-57.963702 43.936497,15.116373 30.02788,73.923949 -16.59862,70.181219 -3.3389,-0.26801 -6.07071,-0.31091 -6.07071,-0.0953 0,1.36658 5.49238,10.83336 8.21397,14.15775 3.83248,4.68136 3.51393,4.77029 -4.23776,1.18297 z"
       style="fill:#ffffff;fill-opacity:1" />
    <path
       inkscape:connector-curvature="0"
       id="path4165"
       d="m 47.973463,-26.762476 c 2.82669,-1.287929 3.46542,-6.735416 0.90493,-7.717965 -4.81586,-1.84802 -8.82957,0.02413 -8.82957,4.118448 0,4.38515 3.10499,5.795494 7.92464,3.599517 z"
       style="fill:#aadef5;fill-opacity:1" />
    <path
       inkscape:connector-curvature="0"
       id="path4163"
       d="m 48.655493,-40.874155 c 0.21988,-1.522734 1.16749,-2.251176 3.562,-2.738176 10.44991,-2.125322 14.29053,-18.523285 5.51765,-23.558226 -13.81953,-7.931314 -32.7557,2.879716 -23.25796,13.278414 4.70659,5.153059 16.36625,1.966543 12.93111,-3.533997 -1.63498,-2.618008 -5.48447,-2.704589 -5.48447,-0.123353 0,1.960584 -0.72678,2.256767 -3.20457,1.305948 -2.79744,-1.07348 -1.53216,-3.973362 3.36739,-7.717656 2.7421,-2.095547 8.9749,0.22551 10.78207,4.015176 2.15065,4.509955 1.06534,7.725389 -3.23513,9.584633 -6.98339,3.019176 -7.87073,3.548444 -8.77179,5.232078 -1.28776,2.406215 -0.166,5.199995 2.27823,5.674005 4.39998,0.853287 5.21775,0.642916 5.51547,-1.418845 z"
       style="fill:#aadef5;fill-opacity:1" />
    <path
       inkscape:connector-curvature="0"
       id="path4161"
       d="m 108.7214,-7.04684 c 2.73245,-3.3346 8.20563,-12.72838 8.20138,-14.076304 -5.7e-4,-0.182929 -4.32479,-0.335396 -9.60938,-0.338814 -9.956217,-0.0065 -15.853917,-1.370228 -21.912617,-5.067091 l -2.9293,-1.787384 2.9293,-5.914735 c 6.38238,-12.887054 3.79493,-30.517506 -6.15249,-41.922089 -7.54077,-8.645392 18.47269,-20.088535 36.754087,-16.167876 29.00876,6.221266 40.50108,37.969 21.31473,58.882326 -2.26207,2.465685 -5.24914,6.854485 -6.63793,9.752888 -4.52678,9.447439 -13.31806,17.093749 -23.05077,20.048629 -2.10454,0.63895 -2.02749,0.39858 1.09299,-3.40955 z"
       style="fill:#ffffff;fill-opacity:1" />
    <path
       inkscape:connector-curvature="0"
       id="path4159"
       d="m 113.94886,-35.483422 c 2.64517,-2.516118 2.49052,-8.433684 -0.25309,-9.683751 -7.94325,-3.619188 -13.5659,1.301596 -9.7566,8.538687 1.93289,3.672185 6.77111,4.225654 10.00969,1.145064 z"
       style="fill:#aadef5;fill-opacity:1" />
    <path
       inkscape:connector-curvature="0"
       id="path3348"
       d="m 112.66768,-53.565118 c 1.34543,-9.161033 2.63261,-14.999061 3.85577,-17.487786 2.81015,-5.717755 2.26711,-6.184089 -7.20126,-6.184089 l -8.53913,0 0.57591,2.294578 c 0.31674,1.262018 0.79837,5.3753 1.07028,9.140625 1.12723,15.609117 1.1824,15.752297 6.06992,15.752297 3.50352,0 3.67321,-0.143112 4.16851,-3.515625 z"
       style="fill:#aadef5;fill-opacity:1" />
  </g>
</svg>
