<?xml version="1.0" encoding="UTF-8" standalone="no"?>
<svg
   xmlns:dc="http://purl.org/dc/elements/1.1/"
   xmlns:cc="http://creativecommons.org/ns#"
   xmlns:rdf="http://www.w3.org/1999/02/22-rdf-syntax-ns#"
   xmlns:svg="http://www.w3.org/2000/svg"
   xmlns="http://www.w3.org/2000/svg"
   xmlns:sodipodi="http://sodipodi.sourceforge.net/DTD/sodipodi-0.dtd"
   xmlns:inkscape="http://www.inkscape.org/namespaces/inkscape"
   version="1.1"
   x="0"
   y="0"
   width="524"
   height="300"
   viewBox="0 0 524 300"
   enable-background="new 0 0 841.89 595.276"
   xml:space="preserve"
   id="svg5304"
   inkscape:version="0.91 r13725"
   sodipodi:docname="server_error.svg"><metadata
     id="metadata5318"><rdf:RDF><cc:Work
         rdf:about=""><dc:format>image/svg+xml</dc:format><dc:type
           rdf:resource="http://purl.org/dc/dcmitype/StillImage" /><dc:title /></cc:Work></rdf:RDF></metadata><defs
     id="defs5316" /><sodipodi:namedview
     pagecolor="#ffffff"
     bordercolor="#666666"
     borderopacity="1"
     objecttolerance="10"
     gridtolerance="10"
     guidetolerance="10"
     inkscape:pageopacity="0"
     inkscape:pageshadow="2"
     inkscape:window-width="1600"
     inkscape:window-height="841"
     id="namedview5314"
     showgrid="false"
     inkscape:zoom="1.12"
     inkscape:cx="262"
     inkscape:cy="150"
     inkscape:window-x="-8"
     inkscape:window-y="-8"
     inkscape:window-maximized="1"
     inkscape:current-layer="svg5304" /><style
     id="style5306">.s0{fill:#009de0;}</style><g
     transform="translate(-174.3655,-69.421)"
     id="g5308" /><path
     inkscape:connector-curvature="0"
     id="path6453"
     d="m 421.33607,144.19521 c 3.97609,-4.85229 11.9403,-18.52152 11.93412,-20.48293 -0.001,-0.26619 -6.29315,-0.48804 -13.98293,-0.49301 -14.48766,-0.009 -23.0696,-1.99388 -31.88582,-7.37332 l -4.26253,-2.60088 4.26253,-8.60674 c 9.28722,-18.752396 5.52213,-44.407106 -8.95271,-61.002306 -10.97284,-12.58021 26.88026,-29.23152 53.48216,-23.52643 42.21167,9.05276 58.93455,55.25002 31.01582,85.681736 -3.29163,3.5879 -7.63821,9.97421 -9.6591,14.19178 -6.58708,13.7473 -19.37958,24.87371 -33.54197,29.17345 -3.0624,0.92975 -2.95029,0.57998 1.59043,-4.96135 z m 7.60666,-41.37906 c 3.84908,-3.661298 3.62406,-12.272166 -0.36828,-14.091176 -11.5585,-5.26641 -19.74021,1.894 -14.19717,12.424946 2.81262,5.34352 9.85289,6.14889 14.56545,1.66623 z m -1.86428,-26.311326 c 1.95778,-13.33054 3.8308,-21.82566 5.61067,-25.44709 4.08915,-8.32011 3.29894,-8.99869 -10.47882,-8.99869 l -12.42558,0 0.83802,3.33892 c 0.46089,1.83641 1.16173,7.82179 1.55739,13.30085 1.64029,22.71338 1.72056,22.92173 8.83256,22.92173 5.09811,0 5.34503,-0.20826 6.06576,-5.11572 z"
     style="fill:#009de0;fill-opacity:1"
     sodipodi:nodetypes="sccscssssssssssssssccsss" /><path
     style="fill:#009de0;fill-opacity:1"
     d="m 126.42583,99.118732 c -5.54685,-2.566949 -10.84856,-7.856669 -13.47061,-13.440119 -1.06762,-2.27339 -3.37432,-5.6762 -5.12602,-7.5618 -20.009122,-21.538684 4.22027,-54.191556 32.89196,-44.327036 33.59991,11.560062 22.96347,56.532436 -12.69359,53.670236 -2.55338,-0.20496 -4.6425,-0.23776 -4.6425,-0.0729 0,1.04508 4.20023,8.28468 6.28153,10.82696 2.93085,3.580027 2.68724,3.648037 -3.24077,0.904669 z m 6.60421,-20.914869 c 2.16168,-0.98493 2.65014,-5.15082 0.69204,-5.90222 -3.68288,-1.41325 -6.75231,0.0185 -6.75231,3.14953 0,3.3535 2.37451,4.43205 6.06027,2.75269 z m 0.52158,-10.79173 c 0.16815,-1.16449 0.89282,-1.72157 2.724,-2.09399 7.99144,-1.62532 10.92851,-14.165464 4.21955,-18.015874 -10.56832,-6.06537 -25.04952,2.20223 -17.78624,10.15451 3.5993,3.94073 12.51589,1.50389 9.88891,-2.70258 -1.25034,-2.0021 -4.19419,-2.0683 -4.19419,-0.0943 0,1.49932 -0.55579,1.72583 -2.45065,0.9987 -2.13931,-0.82092 -1.1717,-3.03858 2.57517,-5.90198 2.09699,-1.60255 6.86344,0.17245 8.24546,3.07056 1.64468,3.44893 0.8147,5.90789 -2.47403,7.32972 -5.34046,2.30889 -6.01905,2.713634 -6.70812,4.001184 -0.9848,1.84012 -0.12695,3.97663 1.74225,4.33912 3.36483,0.65255 3.99021,0.49167 4.21789,-1.08504 z"
     id="path6455"
     inkscape:connector-curvature="0"
     sodipodi:nodetypes="cssssssccsssscssssssssssscc" /><path
     sodipodi:nodetypes="cssssssccsssscssssssssssscc"
     inkscape:connector-curvature="0"
     id="path6459"
     d="m 63.817141,195.11873 c -5.54685,-2.56695 -10.84857,-7.85667 -13.47062,-13.44012 -1.06762,-2.27339 -3.37432,-5.6762 -5.12602,-7.5618 -20.00912,-21.53868 4.22027,-54.19156 32.891971,-44.32704 33.599908,11.56007 22.963468,56.53244 -12.693591,53.67024 -2.55338,-0.20496 -4.6425,-0.23776 -4.6425,-0.0729 0,1.04508 4.20023,8.28468 6.28153,10.82696 2.93085,3.58003 2.68724,3.64804 -3.24077,0.90467 z m 6.60421,-20.91487 c 2.16168,-0.98493 2.65014,-5.15082 0.69204,-5.90222 -3.68288,-1.41325 -6.75231,0.0185 -6.75231,3.14953 0,3.3535 2.37451,4.43205 6.06027,2.75269 z m 0.52158,-10.79173 c 0.16815,-1.16449 0.89282,-1.72157 2.724,-2.09399 7.991441,-1.62532 10.928511,-14.16546 4.219551,-18.01587 -10.568321,-6.06537 -25.049531,2.20223 -17.786241,10.15451 3.5993,3.94073 12.51589,1.50389 9.88891,-2.70258 -1.25034,-2.0021 -4.19419,-2.0683 -4.19419,-0.0943 0,1.49932 -0.55579,1.72583 -2.45065,0.9987 -2.13931,-0.82092 -1.1717,-3.03858 2.57517,-5.90198 2.09699,-1.60255 6.86344,0.17245 8.24546,3.07056 1.644681,3.44893 0.814701,5.90789 -2.47403,7.32972 -5.34046,2.30889 -6.01905,2.71363 -6.70812,4.00118 -0.9848,1.84012 -0.12695,3.97663 1.74225,4.33912 3.36483,0.65255 3.99021,0.49167 4.21789,-1.08504 z"
     style="fill:#009de0;fill-opacity:1" /><path
     sodipodi:nodetypes="sccscsssssssssssssscssss"
     inkscape:connector-curvature="0"
     id="path6461"
     d="m 467.4863,285.28116 c 2.08961,-2.5501 6.27515,-9.73388 6.2719,-10.76469 -5.2e-4,-0.13989 -3.30732,-0.25649 -7.34864,-0.2591 -7.61391,-0.005 -12.1241,-1.04787 -16.75741,-3.875 l -2.24015,-1.36688 2.24015,-4.52322 c 4.88084,-9.85522 2.90212,-23.3379 -4.70504,-32.05941 -5.76672,-6.61146 14.12676,-15.36245 28.10723,-12.36418 22.1841,4.75763 30.97271,29.03633 16.30018,45.02954 -1.72989,1.8856 -4.01421,5.24189 -5.07628,7.45841 -3.4618,7.22481 -10.18482,13.07223 -17.62778,15.33194 -1.60943,0.48862 -1.55051,0.3048 0.83584,-2.60741 z m 3.99763,-21.74653 c 2.02286,-1.92417 1.90461,-6.44957 -0.19355,-7.40554 -6.0745,-2.76773 -10.37435,0.99538 -7.46124,6.52986 1.47816,2.80826 5.17813,3.23152 7.65479,0.87568 z m -0.97976,-13.82776 c 1.0289,-7.00579 2.01326,-11.47035 2.94866,-13.37357 2.14902,-4.37259 1.73373,-4.72921 -5.50709,-4.72921 l -6.53019,0 0.44042,1.75475 c 0.24222,0.96511 0.61054,4.11069 0.81848,6.99018 0.86204,11.93688 0.90423,12.04638 4.6419,12.04638 2.67928,0 2.80905,-0.10945 3.18782,-2.68853 z"
     style="fill:#009de0;fill-opacity:1" /><path
     sodipodi:nodetypes="sccscsssssssssssssscssss"
     inkscape:connector-curvature="0"
     id="path6463"
     d="m 360.00805,240.4116 c 2.08961,-2.5501 6.27515,-9.73388 6.2719,-10.76469 -5.2e-4,-0.13989 -3.30732,-0.25649 -7.34864,-0.2591 -7.61391,-0.005 -12.1241,-1.04787 -16.75741,-3.875 l -2.24015,-1.36688 2.24015,-4.52322 c 4.88084,-9.85522 2.90212,-23.3379 -4.70504,-32.05941 -5.76672,-6.61146 14.12676,-15.36245 28.10723,-12.36418 22.1841,4.75763 30.97271,29.03633 16.30018,45.02954 -1.72989,1.8856 -4.01421,5.24189 -5.07628,7.45841 -3.4618,7.22481 -10.18482,13.07223 -17.62778,15.33194 -1.60943,0.48862 -1.55051,0.3048 0.83584,-2.60741 z m 3.99763,-21.74653 c 2.02286,-1.92417 1.90461,-6.44957 -0.19355,-7.40554 -6.0745,-2.76773 -10.37435,0.99538 -7.46124,6.52986 1.47816,2.80826 5.17813,3.23152 7.65479,0.87568 z m -0.97976,-13.82776 c 1.0289,-7.00579 2.01326,-11.47035 2.94866,-13.37357 2.14902,-4.37259 1.73373,-4.72921 -5.50709,-4.72921 l -6.53019,0 0.44042,1.75475 c 0.24222,0.96511 0.61054,4.11069 0.81848,6.99018 0.86204,11.93688 0.90423,12.04638 4.6419,12.04638 2.67928,0 2.80905,-0.10945 3.18782,-2.68853 z"
     style="fill:#009de0;fill-opacity:1" /><path
     style="fill:#009de0;fill-opacity:1"
     d="m 141.71149,272.59674 c -4.7989,-2.22082 -9.38572,-6.79725 -11.65422,-11.62781 -0.92365,-1.96685 -2.91931,-4.91081 -4.43481,-6.54216 -17.31105,-18.63436 3.65121,-46.88425 28.45674,-38.34989 29.06923,10.0013 19.86704,48.90949 -10.98195,46.43324 -2.20907,-0.17733 -4.0165,-0.2057 -4.0165,-0.063 0,0.90414 3.63387,7.16754 5.43452,9.36702 2.53565,3.09729 2.32488,3.15613 -2.80378,0.78268 z m 5.71369,-18.09466 c 1.87019,-0.85212 2.29279,-4.45627 0.59872,-5.10635 -3.18628,-1.22268 -5.84181,0.0167 -5.84181,2.72484 0,2.90131 2.05432,3.83442 5.24309,2.38151 z m 0.45124,-9.33655 c 0.14556,-1.00747 0.77243,-1.48943 2.35668,-1.81163 6.91386,-1.40617 9.45489,-12.25535 3.6506,-15.58657 -9.14327,-5.2475 -21.6718,1.90527 -15.38792,8.78526 3.11397,3.40934 10.82823,1.30109 8.55547,-2.33817 -1.08174,-1.73214 -3.62863,-1.78941 -3.62863,-0.0815 0,1.29715 -0.48084,1.49311 -2.1202,0.86404 -1.85084,-0.71023 -1.0137,-2.62885 2.22792,-5.10616 1.81423,-1.38646 5.93796,0.14924 7.13362,2.65652 1.42292,2.98387 0.70485,5.11127 -2.14042,6.34138 -4.62035,1.99755 -5.20742,2.34771 -5.80357,3.46165 -0.85201,1.59199 -0.1098,3.44041 1.50731,3.75402 2.91111,0.56457 3.45216,0.42538 3.64914,-0.93872 z"
     id="path6465"
     inkscape:connector-curvature="0"
     sodipodi:nodetypes="cssssssccsssscssssssssssscc" /><path
     id="path3350"
     style="opacity:1;fill:#ff0000;fill-opacity:1;stroke:#ff0000;stroke-width:1;stroke-miterlimit:4;stroke-dasharray:none;stroke-opacity:1"
     d="m 233.91816,247.48373 c 10.83386,20.61236 37.95223,23.71956 56.10443,6.42793 14.82617,-14.12323 13.95924,-47.3404 -1.41876,-54.35714 -10.43482,-4.7613 -20.1564,-6.88889 -28.64907,-6.83359 -27.7427,0.1807 -42.38354,23.66115 -26.0366,54.7628 z m -17.69,-227.940255 3.22656,12.8789 c 1.77529,7.08386 4.47597,30.17341 6,51.3086 6.31819,87.615675 6.62694,88.417965 34.02149,88.417965 19.63729,0 20.58906,-0.80216 23.36523,-19.73243 7.54112,-51.42186 14.7555,-84.190665 21.61133,-98.160145 15.75091,-32.09439 12.70695,-34.71289 -40.36328,-34.71289 l -47.86133,0 z"
     inkscape:connector-curvature="0" /></svg>