<svg xmlns:svg="http://www.w3.org/2000/svg" xmlns="http://www.w3.org/2000/svg" xml:space="preserve" enable-background="new 0 0 841.89 595.276" viewBox="0 0 520 130" height="130" width="520" y="0" x="0" version="1.1"><style>.s0{fill:#3f3e3e;}</style><g transform="translate(-174.3655,-239.421)"/><g transform="translate(-140.3655,-239.421)"><path fill="#868686" d="m325 338-11.3 0 0 10.5 12.6 0 0 3.2-16.3 0 0-29.1 15.7 0 0 3.2-11.9 0 0 9.2 11.3 0 0 3.1zM331 336.4c0-2.2 0-3.9-0.2-5.6l3.4 0 0.2 3.5 0.1 0c1-2 3.5-3.9 6.9-3.9 2.9 0 7.4 1.7 7.4 8.9l0 12.5-3.8 0 0-12c0-3.4-1.2-6.2-4.8-6.2-2.5 0-4.4 1.8-5.1 3.9-0.2 0.5-0.3 1.1-0.3 1.8l0 12.6-3.8 0 0-15.2zM359.4 324.8l0 6 5.4 0 0 2.9-5.4 0 0 11.3c0 2.6 0.7 4.1 2.9 4.1 1 0 1.7-0.1 2.2-0.3l0.2 2.9c-0.7 0.3-1.9 0.5-3.4 0.5-1.8 0-3.2-0.6-4.1-1.6-1.1-1.1-1.5-3-1.5-5.4l0-11.4-3.2 0 0-2.9 3.2 0 0-5 3.7-1zM373.3 324.9c0 1.3-0.9 2.3-2.4 2.3-1.3 0-2.3-1-2.3-2.3 0-1.3 1-2.4 2.4-2.4 1.4 0 2.3 1 2.3 2.4zm-4.2 26.8 0-20.9 3.8 0 0 20.9-3.8 0zM383.7 324.8l0 6 5.4 0 0 2.9-5.4 0 0 11.3c0 2.6 0.7 4.1 2.9 4.1 1 0 1.7-0.1 2.2-0.3l0.2 2.9c-0.7 0.3-1.9 0.5-3.4 0.5-1.8 0-3.2-0.6-4.1-1.6-1.1-1.1-1.5-3-1.5-5.4l0-11.4-3.2 0 0-2.9 3.2 0 0-5 3.7-1zM395.2 330.8l4.6 12.3c0.5 1.4 1 3 1.3 4.3l0.1 0c0.4-1.2 0.8-2.8 1.3-4.4l4.1-12.3 4 0-5.7 14.9c-2.7 7.2-4.6 10.8-7.2 13.1-1.8 1.6-3.7 2.3-4.7 2.5l-0.9-3.2c1-0.3 2.2-0.9 3.3-1.9 1-0.8 2.3-2.3 3.2-4.2 0.2-0.4 0.3-0.7 0.3-0.9 0-0.2-0.1-0.5-0.3-1l-7.7-19.2 4.1 0zM414.1 337.6c0-2.7-0.1-4.8-0.2-6.8l3.4 0 0.2 3.6 0.1 0c1.6-2.5 4-4.1 7.4-4.1 5.1 0 8.9 4.3 8.9 10.6 0 7.5-4.6 11.2-9.5 11.2-2.8 0-5.2-1.2-6.4-3.3l-0.1 0 0 11.4-3.7 0 0-22.6zm3.8 5.6c0 0.6 0.1 1.1 0.2 1.6 0.7 2.6 3 4.4 5.7 4.4 4 0 6.3-3.3 6.3-8.1 0-4.2-2.2-7.8-6.2-7.8-2.6 0-5 1.9-5.7 4.7-0.1 0.5-0.3 1-0.3 1.6l0 3.6zM440.8 341.9c0.1 5.1 3.4 7.3 7.2 7.3 2.7 0 4.4-0.5 5.8-1.1l0.7 2.7c-1.3 0.6-3.6 1.3-6.9 1.3-6.4 0-10.3-4.2-10.3-10.5 0-6.3 3.7-11.3 9.8-11.3 6.8 0 8.6 6 8.6 9.8 0 0.8-0.1 1.4-0.1 1.8l-14.7 0zm11.1-2.7c0-2.4-1-6.2-5.3-6.2-3.8 0-5.5 3.5-5.8 6.2l11.1 0zM478.3 321l0 25.2c0 1.9 0 4 0.2 5.4l-3.4 0-0.2-3.6-0.1 0c-1.2 2.3-3.7 4.1-7.1 4.1-5 0-8.9-4.3-8.9-10.6 0-6.9 4.3-11.2 9.4-11.2 3.2 0 5.4 1.5 6.3 3.2l0.1 0 0-12.5 3.8 0zm-3.8 18.3c0-0.5 0-1.1-0.2-1.6-0.6-2.4-2.6-4.4-5.5-4.4-3.9 0-6.3 3.5-6.3 8.1 0 4.2 2.1 7.7 6.2 7.7 2.6 0 4.9-1.7 5.6-4.5 0.1-0.5 0.2-1 0.2-1.6l0-3.6zM488.9 324.9c0 1.3-0.9 2.3-2.4 2.3-1.3 0-2.3-1-2.3-2.3 0-1.3 1-2.4 2.4-2.4 1.4 0 2.3 1 2.3 2.4zm-4.2 26.8 0-20.9 3.8 0 0 20.9-3.8 0zM506.3 351.6l-0.3-2.6-0.1 0c-1.2 1.6-3.4 3.1-6.4 3.1-4.2 0-6.4-3-6.4-6 0-5 4.5-7.8 12.6-7.8l0-0.4c0-1.7-0.5-4.8-4.7-4.8-1.9 0-4 0.6-5.4 1.6l-0.9-2.5c1.7-1.1 4.2-1.8 6.9-1.8 6.4 0 7.9 4.4 7.9 8.5l0 7.8c0 1.8 0.1 3.6 0.4 5l-3.4 0zm-0.6-10.7c-4.1-0.1-8.8 0.7-8.8 4.7 0 2.5 1.6 3.6 3.6 3.6 2.7 0 4.4-1.7 5.1-3.5 0.1-0.4 0.2-0.8 0.2-1.2l0-3.6zM546.9 350.4c-1.7 0.6-5 1.6-8.9 1.6-4.4 0-8-1.1-10.9-3.8-2.5-2.4-4.1-6.3-4.1-10.8 0-8.7 6-15 15.8-15 3.4 0 6 0.7 7.3 1.3l-0.9 3.1c-1.5-0.7-3.5-1.2-6.4-1.2-7.1 0-11.7 4.4-11.7 11.7 0 7.4 4.4 11.7 11.2 11.7 2.5 0 4.1-0.3 5-0.8l0-8.7-5.9 0 0-3 9.6 0 0 14zM564.5 351.6l-0.3-2.6-0.1 0c-1.2 1.6-3.4 3.1-6.4 3.1-4.2 0-6.4-3-6.4-6 0-5 4.5-7.8 12.6-7.8l0-0.4c0-1.7-0.5-4.8-4.7-4.8-1.9 0-4 0.6-5.4 1.6l-0.9-2.5c1.7-1.1 4.2-1.8 6.9-1.8 6.4 0 7.9 4.4 7.9 8.5l0 7.8c0 1.8 0.1 3.6 0.4 5l-3.4 0zm-0.6-10.7c-4.1-0.1-8.8 0.7-8.8 4.7 0 2.5 1.6 3.6 3.6 3.6 2.7 0 4.4-1.7 5.1-3.5 0.1-0.4 0.2-0.8 0.2-1.2l0-3.6zM573.7 336.4c0-2.2 0-3.9-0.2-5.6l3.3 0 0.2 3.4 0.1 0c1.2-2 3.1-3.8 6.6-3.8 2.9 0 5 1.7 5.9 4.2l0.1 0c0.7-1.2 1.5-2.1 2.3-2.7 1.3-0.9 2.6-1.5 4.6-1.5 2.8 0 6.9 1.8 6.9 9.1l0 12.3-3.7 0 0-11.8c0-4-1.5-6.4-4.5-6.4-2.2 0-3.8 1.6-4.5 3.5-0.2 0.5-0.3 1.2-0.3 1.9l0 12.9-3.7 0 0-12.5c0-3.3-1.5-5.7-4.4-5.7-2.4 0-4.1 1.9-4.7 3.8-0.2 0.6-0.3 1.2-0.3 1.9l0 12.6-3.7 0 0-15.2zM611.8 341.9c0.1 5.1 3.4 7.3 7.2 7.3 2.7 0 4.4-0.5 5.8-1.1l0.7 2.7c-1.3 0.6-3.6 1.3-6.9 1.3-6.4 0-10.3-4.2-10.3-10.5 0-6.3 3.7-11.3 9.8-11.3 6.8 0 8.6 6 8.6 9.8 0 0.8-0.1 1.4-0.1 1.8l-14.7 0zm11.1-2.7c0-2.4-1-6.2-5.3-6.2-3.8 0-5.5 3.5-5.8 6.2l11.1 0zM630.8 347.8c1.1 0.7 3.1 1.5 5 1.5 2.8 0 4.1-1.4 4.1-3.1 0-1.8-1.1-2.8-3.9-3.8-3.7-1.3-5.5-3.4-5.5-5.9 0-3.4 2.7-6.1 7.2-6.1 2.1 0 4 0.6 5.1 1.3l-0.9 2.8c-0.8-0.5-2.3-1.2-4.3-1.2-2.2 0-3.5 1.3-3.5 2.9 0 1.7 1.3 2.5 4 3.5 3.6 1.4 5.5 3.2 5.5 6.3 0 3.7-2.8 6.3-7.8 6.3-2.3 0-4.4-0.6-5.9-1.4l1-2.9z"/></g><g transform="translate(32.106507,-4.0309975)"><path d="m186.2 68.2c-4.3-0.8-9.3-1.9-13.8-3.2l0-0.3c7.7-3 13.5-11.5 13.5-24.1 0-14.7-9-26.3-24.1-26.3-15 0-24.9 11.3-24.9 27.4 0 17 10.8 25.9 22.9 26.5 1.2 0.1 2.3 0.4 3.4 0.8 6.6 2.6 13.1 4.7 20.4 6.7l2.7-7.5zm-24.9-7.7c-9.1 0-14.5-8.6-14.4-19.1-0.1-10.5 5-19.5 14.6-19.5 9.5 0 14.3 9.2 14.3 19.1 0 10.9-5.3 19.5-14.5 19.5zM227.8 29.6l-9.5 0 0 22.8c0 1.1-0.2 2.1-0.5 3-1 2.4-3.5 5.1-7.3 5.1-5 0-7-4-7-10.3l0-20.5-9.5 0 0 22.2c0 12.3 6.3 16.4 13.2 16.4 6.7 0 10.5-3.9 12.1-6.6l0.2 0 0.5 5.7 8.4 0c-0.1-3.1-0.3-6.8-0.3-11.3l0-26.4zM267.9 67.3c-0.4-2.3-0.5-5.7-0.5-9.1l0-13.6c0-8.2-3.5-15.9-15.6-15.9-6 0-10.8 1.6-13.6 3.3l1.9 6.2c2.6-1.6 6.4-2.8 10.2-2.8 6.7 0 7.7 4.1 7.7 6.6l0 0.6c-13.9-0.1-22.4 4.7-22.4 14.3 0 5.7 4.3 11.2 11.9 11.2 4.9 0 8.8-2.1 11.2-5l0.2 0 0.6 4.2 8.6 0zm-9.8-13.2c0 0.6-0.1 1.4-0.3 2.1-0.8 2.7-3.6 5.2-7.4 5.2-3 0-5.4-1.7-5.4-5.4 0-5.7 6.4-7.2 13.2-7l0 5.2zM277.4 67.3l9.6 0 0-22.2c0-1.1 0.1-2.2 0.4-3.1 1-2.9 3.6-5.6 7.4-5.6 5.2 0 7.2 4.1 7.2 9.5l0 21.3 9.5 0 0-22.4c0-11.9-6.8-16.2-13.4-16.2-6.3 0-10.4 3.6-12 6.5l-0.2 0-0.5-5.7-8.4 0c0.2 3.3 0.3 6.9 0.3 11.2l0 26.5zM347 12.3l0 21.4-0.1 0c-1.7-2.8-5.4-5-10.6-5-9.1 0-17 7.5-16.9 20.2 0 11.6 7.1 19.3 16.1 19.3 5.5 0 10.1-2.6 12.3-6.8l0.2 0 0.4 6 8.5 0c-0.1-2.6-0.3-6.7-0.3-10.6l0-44.4-9.5 0zm0 38.7c0 1-0.1 1.9-0.3 2.8-0.9 4.1-4.3 6.7-8.2 6.7-6 0-9.4-5-9.4-11.9 0-7 3.4-12.5 9.5-12.5 4.3 0 7.4 3 8.2 6.7 0.2 0.8 0.2 1.7 0.2 2.5l0 5.7zM396.5 67.3c-0.4-2.3-0.5-5.7-0.5-9.1l0-13.6c0-8.2-3.5-15.9-15.6-15.9-6 0-10.8 1.6-13.6 3.3l1.9 6.2c2.6-1.6 6.4-2.8 10.2-2.8 6.7 0 7.7 4.1 7.7 6.6l0 0.6c-13.9-0.1-22.4 4.7-22.4 14.3 0 5.7 4.3 11.2 11.9 11.2 4.9 0 8.8-2.1 11.2-5l0.2 0 0.6 4.2 8.6 0zm-9.8-13.2c0 0.6-0.1 1.4-0.3 2.1-0.8 2.7-3.6 5.2-7.4 5.2-3 0-5.4-1.7-5.4-5.4 0-5.7 6.4-7.2 13.2-7l0 5.2z" style="-inkscape-font-specification:'Myriad Pro, Semi-Bold';fill:#3f3e3e;font-family:'Myriad Pro';font-size:77.5;font-weight:600;letter-spacing:0;line-height:125;text-align:start;text-anchor:start;word-spacing:0;writing-mode:lr-tb"/></g><path d="m32.8 119.5c-15.5-2.6 2.1-8.2 26.5-6.4 13.8 1 17.7 3.4 11.9 5.2-6.6 2-22.3 3.9-38.4 1.2zm66.4-0.9c-12.7-2.1-9.2-5.1 7.6-6.3 23.6-1.7 44.3 2.4 27.7 6-8.9 1.9-30.6 1.1-35.2 0.3z" fill="#868686"/><path d="m40.1 118.4c-8.1-1.2-6.4-3.2 3.4-4.1 6.4-0.6 16.6 0.1 19.9 1.3 5.4 2-13.8 4.3-23.4 2.8zm65.9-1c-7.2-1.4-5-3.2 5.1-4 6.5-0.5 18.3 0.5 19.6 1.7 2.3 2.3-15.9 4-24.6 2.3zM48.6 96.1c-6.8-3.1-13.3-9.6-16.5-16.5-1.3-2.8-4.1-7-6.3-9.3-24.5-26.4 5.2-66.4 40.3-54.3 41.2 14.2 28.2 69.3-15.6 65.8-3.1-0.2-5.7-0.3-5.7-0.1 0 1.3 5.2 10.2 7.7 13.3 3.6 4.4 3.3 4.5-4 1.1zm8.1-25.6c2.7-1.2 3.3-6.3 0.9-7.2-4.5-1.7-8.3 0-8.3 3.9 0 4.1 2.9 5.4 7.4 3.4zm0.6-13.2c0.2-1.4 1.1-2.1 3.3-2.6 9.8-2 13.4-17.3 5.2-22.1-13-7.4-30.7 2.7-21.8 12.5 4.4 4.8 15.3 1.8 12.1-3.3-1.5-2.4-5.1-2.5-5.1-0.1 0 1.8-0.7 2.1-3 1.2-2.6-1-1.4-3.7 3.2-7.2 2.6-2 8.4 0.2 10.1 3.8 2 4.2 1 7.2-3 9-6.5 2.8-7.4 3.3-8.2 4.9-1.2 2.3-0.2 4.9 2.1 5.3 4.1 0.8 4.9 0.6 5.2-1.3zm56.3 31.7c2.6-3.1 7.7-11.9 7.7-13.2 0-0.2-4-0.3-9-0.3-9.3 0-14.9-1.3-20.5-4.7l-2.7-1.7 2.8-5.5c6-12.1 3.6-28.6-5.8-39.3-7.1-8.1 17.3-18.8 34.5-15.1 27.2 5.8 38 35.6 20 55.2-2.1 2.3-4.9 6.4-6.2 9.1-4.2 8.9-12.5 16-21.6 18.8-2 0.6-1.9 0.4 1-3.2zm4.9-26.6c2.5-2.4 2.3-7.9-0.2-9.1-7.4-3.4-12.7 1.2-9.1 8 1.8 3.4 6.4 4 9.4 1.1zm-1.2-16.9c1.3-8.6 2.5-14.1 3.6-16.4 2.6-5.4 2.1-5.8-6.7-5.8l-8 0 0.5 2.2c0.3 1.2 0.8 5 1 8.6 1.1 14.6 1.1 14.8 5.7 14.8 3.3 0 3.4-0.1 3.9-3.3z" fill="#3f3e3e"/></svg>