<svg xmlns:svg="http://www.w3.org/2000/svg" xmlns="http://www.w3.org/2000/svg" xml:space="preserve" enable-background="new 0 0 841.89 595.276" viewBox="0 0 1200 320" height="320" width="1200" y="0" x="0" version="1.1"><style>.s0{fill:#009de0;}</style><g transform="translate(-174.3655,-49.421)"/><path d="m490.9 291.2c-20.8-9.6-40.6-29.4-50.4-50.3-4-8.5-12.6-21.2-19.2-28.3C346.5 132 437.1 9.8 544.4 46.7 670.2 90 630.4 258.3 496.9 247.6c-9.6-0.8-17.4-0.9-17.4-0.3 0 3.9 15.7 31 23.5 40.5 11 13.4 10.1 13.7-12.1 3.4zm24.7-78.3c8.1-3.7 9.9-19.3 2.6-22.1-13.8-5.3-25.3 0.1-25.3 11.8 0 12.5 8.9 16.6 22.7 10.3zm2-40.4c0.6-4.4 3.3-6.4 10.2-7.8 29.9-6.1 40.9-53 15.8-67.4-39.5-22.7-93.7 8.2-66.6 38 13.5 14.7 46.8 5.6 37-10.1-4.7-7.5-15.7-7.7-15.7-0.4 0 5.6-2.1 6.5-9.2 3.7-8-3.1-4.4-11.4 9.6-22.1 7.8-6 25.7 0.6 30.9 11.5 6.2 12.9 3 22.1-9.3 27.4-20 8.6-22.5 10.2-25.1 15-3.7 6.9-0.5 14.9 6.5 16.2 12.6 2.4 14.9 1.8 15.8-4.1zm171.9 96.8c7.8-9.5 23.5-36.4 23.5-40.3 0-0.5-12.4-1-27.5-1-28.5 0-45.4-3.9-62.7-14.5l-8.4-5.1 8.4-16.9c18.3-36.9 10.9-87.3-17.6-120-21.6-24.7 52.9-57.5 105.2-46.3 83 17.8 115.9 108.7 61 168.5-6.5 7.1-15 19.6-19 27.9-13 27-38.1 48.9-66 57.4-6 1.8-5.8 1.1 3.1-9.8zm15-81.4c7.6-7.2 7.1-24.1-0.7-27.7-22.7-10.4-38.8 3.7-27.9 24.4 5.5 10.5 19.4 12.1 28.6 3.3zm-3.7-51.7c3.9-26.2 7.5-42.9 11-50 8-16.4 6.5-17.7-20.6-17.7l-24.4 0 1.6 6.6c0.9 3.6 2.3 15.4 3.1 26.2 3.2 44.7 3.4 45.1 17.4 45.1 10 0 10.5-0.4 11.9-10.1zM81.1 274.9C70.6 270 60.5 259.9 55.5 249.3 53.5 245 49.1 238.5 45.8 234.9 7.7 193.9 53.8 131.8 108.3 150.5c63.9 22 43.7 107.6-24.2 102.1-4.9-0.4-8.8-0.5-8.8-0.1 0 2 8 15.8 12 20.6 5.6 6.8 5.1 6.9-6.2 1.7zm12.6-39.8c4.1-1.9 5-9.8 1.3-11.2-7-2.7-12.8 0-12.8 6 0 6.4 4.5 8.4 11.5 5.2zm1-20.5c0.3-2.2 1.7-3.3 5.2-4 15.2-3.1 20.8-27 8-34.3-20.1-11.5-47.7 4.2-33.8 19.3 6.8 7.5 23.8 2.9 18.8-5.1-2.4-3.8-8-3.9-8-0.2 0 2.9-1.1 3.3-4.7 1.9-4.1-1.6-2.2-5.8 4.9-11.2 4-3 13.1 0.3 15.7 5.8 3.1 6.6 1.6 11.2-4.7 13.9-10.2 4.4-11.5 5.2-12.8 7.6-1.9 3.5-0.2 7.6 3.3 8.3 6.4 1.2 7.6 0.9 8-2.1zm87.4 49.2c4-4.9 11.9-18.5 11.9-20.5 0-0.3-6.3-0.5-14-0.5-14.5 0-23.1-2-31.9-7.4l-4.3-2.6 4.3-8.6c9.3-18.8 5.5-44.4-9-61-11-12.6 26.9-29.2 53.5-23.5 42.2 9.1 58.9 55.3 31 85.7-3.3 3.6-7.6 10-9.7 14.2-6.6 13.7-19.4 24.9-33.5 29.2-3.1 0.9-3 0.6 1.6-5zm7.6-41.4c3.8-3.7 3.6-12.3-0.4-14.1-11.6-5.3-19.7 1.9-14.2 12.4 2.8 5.3 9.9 6.1 14.6 1.7zm-1.9-26.3c2-13.3 3.8-21.8 5.6-25.4 4.1-8.3 3.3-9-10.5-9l-12.4 0 0.8 3.3c0.5 1.8 1.2 7.8 1.6 13.3 1.6 22.7 1.7 22.9 8.8 22.9 5.1 0 5.3-0.2 6.1-5.1zM1045.1 251.1c-7.1-3.3-14-10.1-17.4-17.3-1.4-2.9-4.3-7.3-6.6-9.7-25.8-27.7 5.4-69.8 42.4-57.1 43.3 14.9 29.6 72.8-16.4 69.1-3.3-0.3-6-0.3-6-0.1 0 1.3 5.4 10.7 8.1 13.9 3.8 4.6 3.5 4.7-4.2 1.2zm8.5-26.9c2.8-1.3 3.4-6.6 0.9-7.6-4.7-1.8-8.7 0-8.7 4.1 0 4.3 3.1 5.7 7.8 3.5zm0.7-13.9c0.2-1.5 1.2-2.2 3.5-2.7 10.3-2.1 14.1-18.2 5.4-23.2-13.6-7.8-32.3 2.8-22.9 13.1 4.6 5.1 16.1 1.9 12.7-3.5-1.6-2.6-5.4-2.7-5.4-0.1 0 1.9-0.7 2.2-3.2 1.3-2.8-1.1-1.5-3.9 3.3-7.6 2.7-2.1 8.8 0.2 10.6 4 2.1 4.4 1 7.6-3.2 9.4-6.9 3-7.8 3.5-8.6 5.2-1.3 2.4-0.2 5.1 2.2 5.6 4.3 0.8 5.1 0.6 5.4-1.4zm59.2 33.3c2.7-3.3 8.1-12.5 8.1-13.9 0-0.2-4.3-0.3-9.5-0.3-9.8 0-15.6-1.3-21.6-5l-2.9-1.8 2.9-5.8c6.3-12.7 3.7-30.1-6.1-41.3-7.4-8.5 18.2-19.8 36.2-15.9 28.6 6.1 39.9 37.4 21 58-2.2 2.4-5.2 6.8-6.5 9.6-4.5 9.3-13.1 16.8-22.7 19.7-2.1 0.6-2 0.4 1.1-3.4zm5.1-28c2.6-2.5 2.5-8.3-0.2-9.5-7.8-3.6-13.4 1.3-9.6 8.4 1.9 3.6 6.7 4.2 9.9 1.1zm-1.3-17.8c1.3-9 2.6-14.8 3.8-17.2 2.8-5.6 2.2-6.1-7.1-6.1l-8.4 0 0.6 2.3c0.3 1.2 0.8 5.3 1.1 9 1.1 15.4 1.2 15.5 6 15.5 3.5 0 3.6-0.1 4.1-3.5zM63.5 99.7c-5.5-2.6-10.8-7.9-13.5-13.4-1.1-2.3-3.4-5.7-5.1-7.6-20-21.5 4.2-54.2 32.9-44.3 33.6 11.6 23 56.5-12.7 53.7-2.6-0.2-4.6-0.2-4.6-0.1 0 1 4.2 8.3 6.3 10.8 2.9 3.6 2.7 3.6-3.2 0.9zm6.6-20.9c2.2-1 2.7-5.2 0.7-5.9-3.7-1.4-6.8 0-6.8 3.1 0 3.4 2.4 4.4 6.1 2.8zm0.5-10.8c0.2-1.2 0.9-1.7 2.7-2.1 8-1.6 10.9-14.2 4.2-18-10.6-6.1-25 2.2-17.8 10.2 3.6 3.9 12.5 1.5 9.9-2.7-1.3-2-4.2-2.1-4.2-0.1 0 1.5-0.6 1.7-2.5 1-2.1-0.8-1.2-3 2.6-5.9 2.1-1.6 6.9 0.2 8.2 3.1 1.6 3.4 0.8 5.9-2.5 7.3-5.3 2.3-6 2.7-6.7 4-1 1.8-0.1 4 1.7 4.3 3.4 0.7 4 0.5 4.2-1.1zm45.9 25.9c2.1-2.6 6.3-9.7 6.3-10.8 0-0.1-3.3-0.3-7.3-0.3-7.6 0-12.1-1-16.8-3.9l-2.2-1.4 2.2-4.5c4.9-9.9 2.9-23.3-4.7-32.1-5.8-6.6 14.1-15.4 28.1-12.4 22.2 4.8 31 29 16.3 45-1.7 1.9-4 5.2-5.1 7.5-3.5 7.2-10.2 13.1-17.6 15.3-1.6 0.5-1.6 0.3 0.8-2.6zm4-21.7c2-1.9 1.9-6.4-0.2-7.4-6.1-2.8-10.4 1-7.5 6.5 1.5 2.8 5.2 3.2 7.7 0.9zm-1-13.8c1-7 2-11.5 2.9-13.4 2.1-4.4 1.7-4.7-5.5-4.7l-6.5 0 0.4 1.8c0.2 1 0.6 4.1 0.8 7 0.9 11.9 0.9 12 4.6 12 2.7 0 2.8-0.1 3.2-2.7zM292.4 131.3c-3-1.4-5.8-4.2-7.2-7.2-0.6-1.2-1.8-3-2.8-4.1-10.8-11.6 2.3-29.1 17.7-23.8 18.1 6.2 12.3 30.4-6.8 28.8-1.4-0.1-2.5-0.1-2.5 0 0 0.6 2.3 4.5 3.4 5.8 1.6 1.9 1.4 2-1.7 0.5zm3.5-11.2c1.2-0.5 1.4-2.8 0.4-3.2-2-0.8-3.6 0-3.6 1.7 0 1.8 1.3 2.4 3.3 1.5zm0.3-5.8c0.1-0.6 0.5-0.9 1.5-1.1 4.3-0.9 5.9-7.6 2.3-9.7-5.7-3.3-13.5 1.2-9.6 5.5 1.9 2.1 6.7 0.8 5.3-1.5-0.7-1.1-2.3-1.1-2.3-0.1 0 0.8-0.3 0.9-1.3 0.5-1.1-0.4-0.6-1.6 1.4-3.2 1.1-0.9 3.7 0.1 4.4 1.6 0.9 1.9 0.4 3.2-1.3 3.9-2.9 1.2-3.2 1.5-3.6 2.1-0.5 1-0.1 2.1 0.9 2.3 1.8 0.4 2.1 0.3 2.3-0.6zm24.7 13.9c1.1-1.4 3.4-5.2 3.4-5.8 0-0.1-1.8-0.1-3.9-0.1-4.1 0-6.5-0.6-9-2.1l-1.2-0.7 1.2-2.4c2.6-5.3 1.6-12.5-2.5-17.2-3.1-3.6 7.6-8.3 15.1-6.6 11.9 2.6 16.6 15.6 8.8 24.2-0.9 1-2.2 2.8-2.7 4-1.9 3.9-5.5 7-9.5 8.2-0.9 0.3-0.8 0.2 0.4-1.4zm2.1-11.7c1.1-1 1-3.5-0.1-4-3.3-1.5-5.6 0.5-4 3.5 0.8 1.5 2.8 1.7 4.1 0.5zm-0.5-7.4c0.6-3.8 1.1-6.2 1.6-7.2 1.2-2.3 0.9-2.5-3-2.5l-3.5 0 0.2 0.9c0.1 0.5 0.3 2.2 0.4 3.8 0.5 6.4 0.5 6.5 2.5 6.5 1.4 0 1.5-0.1 1.7-1.4zM879.9 112.5c-4.7-2.2-9.1-6.6-11.3-11.3-0.9-1.9-2.8-4.8-4.3-6.4-16.8-18.1 3.6-45.6 27.7-37.3 28.3 9.7 19.3 47.6-10.7 45.2-2.1-0.2-3.9-0.2-3.9-0.1 0 0.9 3.5 7 5.3 9.1 2.5 3 2.3 3.1-2.7 0.8zm5.6-17.6c1.8-0.8 2.2-4.3 0.6-5-3.1-1.2-5.7 0-5.7 2.7 0 2.8 2 3.7 5.1 2.3zm0.4-9.1c0.1-1 0.8-1.4 2.3-1.8 6.7-1.4 9.2-11.9 3.6-15.2-8.9-5.1-21.1 1.9-15 8.6 3 3.3 10.5 1.3 8.3-2.3-1.1-1.7-3.5-1.7-3.5-0.1 0 1.3-0.5 1.5-2.1 0.8-1.8-0.7-1-2.6 2.2-5 1.8-1.3 5.8 0.1 6.9 2.6 1.4 2.9 0.7 5-2.1 6.2-4.5 1.9-5.1 2.3-5.6 3.4-0.8 1.5-0.1 3.3 1.5 3.7 2.8 0.5 3.4 0.4 3.6-0.9zm38.7 21.8c1.8-2.1 5.3-8.2 5.3-9.1 0-0.1-2.8-0.2-6.2-0.2-6.4 0-10.2-0.9-14.1-3.3l-1.9-1.2 1.9-3.8c4.1-8.3 2.4-19.7-4-27-4.9-5.6 11.9-12.9 23.7-10.4 18.7 4 26.1 24.4 13.7 37.9-1.5 1.6-3.4 4.4-4.3 6.3-2.9 6.1-8.6 11-14.8 12.9-1.4 0.4-1.3 0.3 0.7-2.2zm3.4-18.3c1.7-1.6 1.6-5.4-0.2-6.2-5.1-2.3-8.7 0.8-6.3 5.5 1.2 2.4 4.4 2.7 6.4 0.7zm-0.8-11.6c0.9-5.9 1.7-9.7 2.5-11.3 1.8-3.7 1.5-4-4.6-4l-5.5 0 0.4 1.5c0.2 0.8 0.5 3.5 0.7 5.9 0.7 10.1 0.8 10.1 3.9 10.1 2.3 0 2.4-0.1 2.7-2.3zM1078.4 105c-4.7-2.2-9.1-6.6-11.3-11.3-0.9-1.9-2.8-4.8-4.3-6.4-16.8-18.1 3.6-45.6 27.7-37.3 28.3 9.7 19.3 47.6-10.7 45.2-2.1-0.2-3.9-0.2-3.9-0.1 0 0.9 3.5 7 5.3 9.1 2.5 3 2.3 3.1-2.7 0.8zm5.6-17.6c1.8-0.8 2.2-4.3 0.6-5-3.1-1.2-5.7 0-5.7 2.7 0 2.8 2 3.7 5.1 2.3zm0.4-9.1c0.1-1 0.8-1.4 2.3-1.8 6.7-1.4 9.2-11.9 3.6-15.2-8.9-5.1-21.1 1.9-15 8.6 3 3.3 10.5 1.3 8.3-2.3-1.1-1.7-3.5-1.7-3.5-0.1 0 1.3-0.5 1.5-2.1 0.8-1.8-0.7-1-2.6 2.2-5 1.8-1.3 5.8 0.1 6.9 2.6 1.4 2.9 0.7 5-2.1 6.2-4.5 1.9-5.1 2.3-5.6 3.4-0.8 1.5-0.1 3.3 1.5 3.7 2.8 0.5 3.4 0.4 3.6-0.9zm38.7 21.8c1.8-2.1 5.3-8.2 5.3-9.1 0-0.1-2.8-0.2-6.2-0.2-6.4 0-10.2-0.9-14.1-3.3l-1.9-1.2 1.9-3.8c4.1-8.3 2.4-19.7-4-27-4.9-5.6 11.9-12.9 23.7-10.4 18.7 4 26.1 24.4 13.7 37.9-1.5 1.6-3.4 4.4-4.3 6.3-2.9 6.1-8.6 11-14.8 12.9-1.4 0.4-1.3 0.3 0.7-2.2zm3.4-18.3c1.7-1.6 1.6-5.4-0.2-6.2-5.1-2.3-8.7 0.8-6.3 5.5 1.2 2.4 4.4 2.7 6.4 0.7zm-0.8-11.6c0.9-5.9 1.7-9.7 2.5-11.3 1.8-3.7 1.5-4-4.6-4l-5.5 0 0.4 1.5c0.2 0.8 0.5 3.5 0.7 5.9 0.7 10.1 0.8 10.1 3.9 10.1 2.3 0 2.4-0.1 2.7-2.3zM852.5 264.4c-4.7-2.2-9.1-6.6-11.3-11.3-0.9-1.9-2.8-4.8-4.3-6.4-16.8-18.1 3.6-45.6 27.7-37.3 28.3 9.7 19.3 47.6-10.7 45.2-2.1-0.2-3.9-0.2-3.9-0.1 0 0.9 3.5 7 5.3 9.1 2.5 3 2.3 3.1-2.7 0.8zm5.6-17.6c1.8-0.8 2.2-4.3 0.6-5-3.1-1.2-5.7 0-5.7 2.7 0 2.8 2 3.7 5.1 2.3zm0.4-9.1c0.1-1 0.8-1.4 2.3-1.8 6.7-1.4 9.2-11.9 3.6-15.2-8.9-5.1-21.1 1.9-15 8.6 3 3.3 10.5 1.3 8.3-2.3-1.1-1.7-3.5-1.7-3.5-0.1 0 1.3-0.5 1.5-2.1 0.8-1.8-0.7-1-2.6 2.2-5 1.8-1.3 5.8 0.1 6.9 2.6 1.4 2.9 0.7 5-2.1 6.2-4.5 1.9-5.1 2.3-5.6 3.4-0.8 1.5-0.1 3.3 1.5 3.7 2.8 0.5 3.4 0.4 3.6-0.9zm38.7 21.8c1.8-2.1 5.3-8.2 5.3-9.1 0-0.1-2.8-0.2-6.2-0.2-6.4 0-10.2-0.9-14.1-3.3l-1.9-1.2 1.9-3.8c4.1-8.3 2.4-19.7-4-27-4.9-5.6 11.9-12.9 23.7-10.4 18.7 4 26.1 24.4 13.7 37.9-1.5 1.6-3.4 4.4-4.3 6.3-2.9 6.1-8.6 11-14.8 12.9-1.4 0.4-1.3 0.3 0.7-2.2zm3.4-18.3c1.7-1.6 1.6-5.4-0.2-6.2-5.1-2.3-8.7 0.8-6.3 5.5 1.2 2.4 4.4 2.7 6.4 0.7zm-0.8-11.6c0.9-5.9 1.7-9.7 2.5-11.3 1.8-3.7 1.5-4-4.6-4l-5.5 0 0.4 1.5c0.2 0.8 0.5 3.5 0.7 5.9 0.7 10.1 0.8 10.1 3.9 10.1 2.3 0 2.4-0.1 2.7-2.3z" fill="#009de0"/><path d="m0 0 0 320 258.9 0c9.4-31 46-43.1 88.6-26.5 9.9 3.9 15.1 14.3 16.3 26.5l296.3 0C718.8 224.5 733.1 105.9 694.7 0L480.2 0c28.4 71.9-14.1 180.4-98.2 197.8-24.7 5.1-34.4 12.7-36.7 28.7-3.1 21.6-11.5 23.8-56.8 14.9-25.2-5-36.7-34.2-23.5-59.5 9.3-17.6 18.4-23.2 90.4-54.8C399.7 107.6 410.9 73.9 388.7 26.7 384 16.6 376.4 7.6 367.1 0L259.2 0c-34.8 31.7-41.2 55.7-16.3 65.5 25.5 10 33 6.9 33-13.7 0-27 39.7-26.1 56.5 1.3C367.8 110.7 247.7 144.1 199.2 90.1 171.1 58.8 167.1 27.2 179.1 0L0 0Zm739.2 0c31.3 98.6 27.7 207.9-15.2 296.1L712.3 320 1200 320 1200 0 1020.3 0c-5 26.2-10.2 57.4-15.4 93.5-5.1 35.3-6.9 36.8-43 36.8-46.5 0-50.6-1.6-60-130.4L739.2 0Zm223.7 168.8c15.6-0.1 33.5 3.9 52.7 12.8 28.3 13.1 29.9 75.1 2.6 101.5-33.4 32.3-83.2 26.5-103.2-12-30.1-58.1-3.1-101.9 47.9-102.2z" style="fill:#009de0;opacity:0.2"/></svg>