<svg xmlns:svg="http://www.w3.org/2000/svg" xmlns="http://www.w3.org/2000/svg" viewBox="0 0 160 160" height="160" width="160" version="1.1"><style>.s0{fill:#fff;}</style><g transform="matrix(1.6405618,0,0,1.6405618,-2.0280879,-100.4618)"><path d="m44.3 152.6c-7.3-3.4-14.2-10.3-17.6-17.6-1.4-3-4.4-7.4-6.7-9.9-26.2-28.2 5.5-70.9 43-58 43.9 15.1 30 73.9-16.6 70.2-3.3-0.3-6.1-0.3-6.1-0.1 0 1.4 5.5 10.8 8.2 14.2 3.8 4.7 3.5 4.8-4.2 1.2z" fill="#009de0"/><path d="m52.9 125.3c2.8-1.3 3.5-6.7 0.9-7.7-4.8-1.8-8.8 0-8.8 4.1 0 4.4 3.1 5.8 7.9 3.6zM53.6 111.2c0.2-1.5 1.2-2.3 3.6-2.7 10.4-2.1 14.3-18.5 5.5-23.6-13.8-7.9-32.8 2.9-23.3 13.3 4.7 5.2 16.4 2 12.9-3.5-1.6-2.6-5.5-2.7-5.5-0.1 0 2-0.7 2.3-3.2 1.3-2.8-1.1-1.5-4 3.4-7.7 2.7-2.1 9 0.2 10.8 4 2.2 4.5 1.1 7.7-3.2 9.6-7 3-7.9 3.5-8.8 5.2-1.3 2.4-0.2 5.2 2.3 5.7 4.4 0.9 5.2 0.6 5.5-1.4z" fill="#fff"/></g></svg>