<svg xmlns:svg="http://www.w3.org/2000/svg" xmlns="http://www.w3.org/2000/svg" version="1.1" x="0" y="0" width="524" height="300" viewBox="0 0 524 300" enable-background="new 0 0 841.89 595.276" xml:space="preserve"><style>.s0{fill:#009de0;}</style><style>.s0{fill:#009de0;}</style><g transform="translate(-174.3655,-69.421)"/><path d="m421.3 144.2c4-4.9 11.9-18.5 11.9-20.5 0-0.3-6.3-0.5-14-0.5-14.5 0-23.1-2-31.9-7.4l-4.3-2.6 4.3-8.6c9.3-18.8 5.5-44.4-9-61-11-12.6 26.9-29.2 53.5-23.5 42.2 9.1 58.9 55.3 31 85.7-3.3 3.6-7.6 10-9.7 14.2-6.6 13.7-19.4 24.9-33.5 29.2-3.1 0.9-3 0.6 1.6-5zm7.6-41.4c3.8-3.7 3.6-12.3-0.4-14.1-11.6-5.3-19.7 1.9-14.2 12.4 2.8 5.3 9.9 6.1 14.6 1.7zm-1.9-26.3c2-13.3 3.8-21.8 5.6-25.4 4.1-8.3 3.3-9-10.5-9l-12.4 0 0.8 3.3c0.5 1.8 1.2 7.8 1.6 13.3 1.6 22.7 1.7 22.9 8.8 22.9 5.1 0 5.3-0.2 6.1-5.1zM126.4 99.1c-5.5-2.6-10.8-7.9-13.5-13.4-1.1-2.3-3.4-5.7-5.1-7.6-20-21.5 4.2-54.2 32.9-44.3 33.6 11.6 23 56.5-12.7 53.7-2.6-0.2-4.6-0.2-4.6-0.1 0 1 4.2 8.3 6.3 10.8 2.9 3.6 2.7 3.6-3.2 0.9zm6.6-20.9c2.2-1 2.7-5.2 0.7-5.9-3.7-1.4-6.8 0-6.8 3.1 0 3.4 2.4 4.4 6.1 2.8zm0.5-10.8c0.2-1.2 0.9-1.7 2.7-2.1 8-1.6 10.9-14.2 4.2-18-10.6-6.1-25 2.2-17.8 10.2 3.6 3.9 12.5 1.5 9.9-2.7-1.3-2-4.2-2.1-4.2-0.1 0 1.5-0.6 1.7-2.5 1-2.1-0.8-1.2-3 2.6-5.9 2.1-1.6 6.9 0.2 8.2 3.1 1.6 3.4 0.8 5.9-2.5 7.3-5.3 2.3-6 2.7-6.7 4-1 1.8-0.1 4 1.7 4.3 3.4 0.7 4 0.5 4.2-1.1zM63.8 195.1c-5.5-2.6-10.8-7.9-13.5-13.4-1.1-2.3-3.4-5.7-5.1-7.6-20-21.5 4.2-54.2 32.9-44.3 33.6 11.6 23 56.5-12.7 53.7-2.6-0.2-4.6-0.2-4.6-0.1 0 1 4.2 8.3 6.3 10.8 2.9 3.6 2.7 3.6-3.2 0.9zm6.6-20.9c2.2-1 2.7-5.2 0.7-5.9-3.7-1.4-6.8 0-6.8 3.1 0 3.4 2.4 4.4 6.1 2.8zm0.5-10.8c0.2-1.2 0.9-1.7 2.7-2.1 8-1.6 10.9-14.2 4.2-18-10.6-6.1-25 2.2-17.8 10.2 3.6 3.9 12.5 1.5 9.9-2.7-1.3-2-4.2-2.1-4.2-0.1 0 1.5-0.6 1.7-2.5 1-2.1-0.8-1.2-3 2.6-5.9 2.1-1.6 6.9 0.2 8.2 3.1 1.6 3.4 0.8 5.9-2.5 7.3-5.3 2.3-6 2.7-6.7 4-1 1.8-0.1 4 1.7 4.3 3.4 0.7 4 0.5 4.2-1.1zM467.5 285.3c2.1-2.6 6.3-9.7 6.3-10.8 0-0.1-3.3-0.3-7.3-0.3-7.6 0-12.1-1-16.8-3.9l-2.2-1.4 2.2-4.5c4.9-9.9 2.9-23.3-4.7-32.1-5.8-6.6 14.1-15.4 28.1-12.4 22.2 4.8 31 29 16.3 45-1.7 1.9-4 5.2-5.1 7.5-3.5 7.2-10.2 13.1-17.6 15.3-1.6 0.5-1.6 0.3 0.8-2.6zm4-21.7c2-1.9 1.9-6.4-0.2-7.4-6.1-2.8-10.4 1-7.5 6.5 1.5 2.8 5.2 3.2 7.7 0.9zm-1-13.8c1-7 2-11.5 2.9-13.4 2.1-4.4 1.7-4.7-5.5-4.7l-6.5 0 0.4 1.8c0.2 1 0.6 4.1 0.8 7 0.9 11.9 0.9 12 4.6 12 2.7 0 2.8-0.1 3.2-2.7zM360 240.4c2.1-2.6 6.3-9.7 6.3-10.8 0-0.1-3.3-0.3-7.3-0.3-7.6 0-12.1-1-16.8-3.9l-2.2-1.4 2.2-4.5c4.9-9.9 2.9-23.3-4.7-32.1-5.8-6.6 14.1-15.4 28.1-12.4 22.2 4.8 31 29 16.3 45-1.7 1.9-4 5.2-5.1 7.5-3.5 7.2-10.2 13.1-17.6 15.3-1.6 0.5-1.6 0.3 0.8-2.6zm4-21.7c2-1.9 1.9-6.4-0.2-7.4-6.1-2.8-10.4 1-7.5 6.5 1.5 2.8 5.2 3.2 7.7 0.9zm-1-13.8c1-7 2-11.5 2.9-13.4 2.1-4.4 1.7-4.7-5.5-4.7l-6.5 0 0.4 1.8c0.2 1 0.6 4.1 0.8 7 0.9 11.9 0.9 12 4.6 12 2.7 0 2.8-0.1 3.2-2.7zM141.7 272.6c-4.8-2.2-9.4-6.8-11.7-11.6-0.9-2-2.9-4.9-4.4-6.5-17.3-18.6 3.7-46.9 28.5-38.3 29.1 10 19.9 48.9-11 46.4-2.2-0.2-4-0.2-4-0.1 0 0.9 3.6 7.2 5.4 9.4 2.5 3.1 2.3 3.2-2.8 0.8zm5.7-18.1c1.9-0.9 2.3-4.5 0.6-5.1-3.2-1.2-5.8 0-5.8 2.7 0 2.9 2.1 3.8 5.2 2.4zm0.5-9.3c0.1-1 0.8-1.5 2.4-1.8 6.9-1.4 9.5-12.3 3.7-15.6-9.1-5.2-21.7 1.9-15.4 8.8 3.1 3.4 10.8 1.3 8.6-2.3-1.1-1.7-3.6-1.8-3.6-0.1 0 1.3-0.5 1.5-2.1 0.9-1.9-0.7-1-2.6 2.2-5.1 1.8-1.4 5.9 0.1 7.1 2.7 1.4 3 0.7 5.1-2.1 6.3-4.6 2-5.2 2.3-5.8 3.5-0.9 1.6-0.1 3.4 1.5 3.8 2.9 0.6 3.5 0.4 3.6-0.9z" fill="#009de0"/><path d="m233.9 247.5c10.8 20.6 38 23.7 56.1 6.4 14.8-14.1 14-47.3-1.4-54.4-10.4-4.8-20.2-6.9-28.6-6.8-27.7 0.2-42.4 23.7-26 54.8zm-17.7-227.9 3.2 12.9c1.8 7.1 4.5 30.2 6 51.3 6.3 87.6 6.6 88.4 34 88.4 19.6 0 20.6-0.8 23.4-19.7 7.5-51.4 14.8-84.2 21.6-98.2 15.8-32.1 12.7-34.7-40.4-34.7l-47.9 0z" style="fill:#f00;stroke:#f00"/></svg>