<svg xmlns:svg="http://www.w3.org/2000/svg" xmlns="http://www.w3.org/2000/svg" version="1.1" width="30" height="30" viewBox="0 0 30 30"><style>.s0{fill:#fff;}.s1{fill:#aadef5;}</style><g transform="matrix(0.21225391,0,0,0.21225391,-1.1516208,24.551426)"><path d="m39.3 0.6c-7.3-3.4-14.2-10.3-17.6-17.6-1.4-3-4.4-7.4-6.7-9.9-26.2-28.2 5.5-70.9 43-58 43.9 15.1 30 73.9-16.6 70.2-3.3-0.3-6.1-0.3-6.1-0.1 0 1.4 5.5 10.8 8.2 14.2 3.8 4.7 3.5 4.8-4.2 1.2z" fill="#fff"/><path d="m48-26.8c2.8-1.3 3.5-6.7 0.9-7.7-4.8-1.8-8.8 0-8.8 4.1 0 4.4 3.1 5.8 7.9 3.6zM48.7-40.9c0.2-1.5 1.2-2.3 3.6-2.7 10.4-2.1 14.3-18.5 5.5-23.6-13.8-7.9-32.8 2.9-23.3 13.3 4.7 5.2 16.4 2 12.9-3.5-1.6-2.6-5.5-2.7-5.5-0.1 0 2-0.7 2.3-3.2 1.3-2.8-1.1-1.5-4 3.4-7.7 2.7-2.1 9 0.2 10.8 4 2.2 4.5 1.1 7.7-3.2 9.6-7 3-7.9 3.5-8.8 5.2-1.3 2.4-0.2 5.2 2.3 5.7 4.4 0.9 5.2 0.6 5.5-1.4z" fill="#aadef5"/><path d="m108.7-7c2.7-3.3 8.2-12.7 8.2-14.1 0-0.2-4.3-0.3-9.6-0.3-10 0-15.9-1.4-21.9-5.1l-2.9-1.8 2.9-5.9c6.4-12.9 3.8-30.5-6.2-41.9-7.5-8.6 18.5-20.1 36.8-16.2 29 6.2 40.5 38 21.3 58.9-2.3 2.5-5.2 6.9-6.6 9.8-4.5 9.4-13.3 17.1-23.1 20-2.1 0.6-2 0.4 1.1-3.4z" fill="#fff"/><path d="m113.9-35.5c2.6-2.5 2.5-8.4-0.3-9.7-7.9-3.6-13.6 1.3-9.8 8.5 1.9 3.7 6.8 4.2 10 1.1zM112.7-53.6c1.3-9.2 2.6-15 3.9-17.5 2.8-5.7 2.3-6.2-7.2-6.2l-8.5 0 0.6 2.3c0.3 1.3 0.8 5.4 1.1 9.1 1.1 15.6 1.2 15.8 6.1 15.8 3.5 0 3.7-0.1 4.2-3.5z" fill="#aadef5"/></g></svg>